<svg xmlns="http://www.w3.org/2000/svg" width="14.927" height="14.525" viewBox="0 0 14.927 14.525">
  <g id="Group_1418" data-name="Group 1418" transform="translate(172.049 -89.475)">
    <path id="noun-profile-4682855" d="M149.19,87.558a3.839,3.839,0,1,0-3.446,0A7.471,7.471,0,0,0,140,94.813h.622a6.842,6.842,0,0,1,13.683,0h.622a7.471,7.471,0,0,0-5.741-7.255Zm-4.941-3.426h0a3.223,3.223,0,1,1,.944,2.274,3.217,3.217,0,0,1-.944-2.274Z" transform="translate(-312.052 9.187)"/>
    <rect id="Rectangle_565" data-name="Rectangle 565" width="11.978" height="0.699" rx="0.349" transform="translate(-170.648 103.302)"/>
  </g>
</svg>
