<?xml version="1.0" encoding="utf-8"?>
<!-- Generator: Adobe Illustrator 26.3.1, SVG Export Plug-In . SVG Version: 6.00 Build 0)  -->
<svg version="1.1" id="Group_2678" xmlns="http://www.w3.org/2000/svg" xmlns:xlink="http://www.w3.org/1999/xlink" x="0px" y="0px"
	 viewBox="0 0 58.8 58.8" style="enable-background:new 0 0 58.8 58.8;" xml:space="preserve">
<style type="text/css">
	.st0{fill:#FFFFFF;}
</style>
<circle id="Ellipse_6" cx="29.4" cy="29.4" r="29.4"/>
<g id="Group_3191" transform="translate(0 0)">
	<g id="Group_3190" transform="translate(0 0)">
		<path id="Path_1171" class="st0" d="M26,25.7c-0.6-3-1.6-5.3-5.4-5.3h-0.7c-0.1,1.8-0.1,4-0.1,5.6v10.1c0,2.1,0.9,2.6,3.3,2.8v0.3
			c0,0-3.9-0.1-5-0.1c-1.1,0-5,0.1-5,0.1v-0.3c2.5-0.2,3.2-0.7,3.2-2.8V26c0-1.6,0-3.6-0.1-5.6h-0.6c-4.3,0-4.8,2.1-5.5,5.3H9.9
			c0-0.8,0-2.9,0-3.8c0-0.8,0-1.6,0-2.2c1.2,0.1,2.4,0.2,3,0.2c0.8,0,2.6,0.1,3.7,0.1h2.9c1,0,2.9-0.1,3.7-0.1c0.6,0,1.7,0,3-0.2
			c-0.1,0.7-0.1,1.5-0.1,2.2c0,1,0,3.1,0.1,3.8L26,25.7z"/>
		<path id="Path_1172" class="st0" d="M48.9,39.2c-1.6-0.1-3.1-0.1-4.7-0.1c-1.5,0-3.1,0-4.6,0.1v-0.3c2.1-0.2,2.8-0.4,2.8-2.8v-6.4
			c-1.5-0.1-3-0.1-4.5-0.1c-1.4,0-2.8,0.1-4.3,0.1v6.4c0,2.4,0.8,2.7,2.9,2.8v0.3c-1.6-0.1-3.1-0.1-4.6-0.1c-1.6,0-3.1,0-4.6,0.1
			v-0.3c2.1-0.2,2.9-0.4,2.9-2.8V22.9c0-2.4-0.7-2.7-2.9-2.8v-0.4c1.6,0.1,3.1,0.1,4.6,0.1c1.5,0,3.1-0.1,4.6-0.1v0.4
			c-2.1,0.1-2.9,0.4-2.9,2.8v5.5h3.8c1.7,0,3.3,0,5,0v-5.5c0-2.4-0.7-2.7-2.8-2.8v-0.4c1.5,0.1,3.1,0.1,4.6,0.1
			c1.6,0,3.1-0.1,4.7-0.1v0.4c-2.1,0.1-2.9,0.4-2.9,2.8v13.1c0,2.4,0.8,2.7,2.9,2.8L48.9,39.2z"/>
	</g>
</g>
</svg>
