<svg xmlns="http://www.w3.org/2000/svg" width="21.949" height="21.106" viewBox="0 0 21.949 21.106">
  <g id="Group_1996" data-name="Group 1996" transform="translate(-72.789 -931.342)">
    <path id="Path_329" data-name="Path 329" d="M138.49,82.631v2.662h0A1.743,1.743,0,0,0,139.914,87v8.391a2.324,2.324,0,0,0,2.324,2.324h14.453a2.324,2.324,0,0,0,2.324-2.324V87a1.743,1.743,0,0,0,1.424-1.711V82.631a1.743,1.743,0,0,0-1.743-1.743h-2.731a2.714,2.714,0,0,0-2.226-4.274c-2.287,0-3.606,1.854-4.274,3.237-.668-1.383-1.987-3.237-4.274-3.237a2.714,2.714,0,0,0-2.226,4.274h-2.731a1.743,1.743,0,0,0-1.743,1.743Zm1.162,2.662V82.631a.581.581,0,0,1,.581-.581h8.65v3.824h-8.65a.581.581,0,0,1-.581-.581Zm2.586,11.265h0a1.163,1.163,0,0,1-1.162-1.162V87.036h7.807v9.522Zm14.452,0h-6.645V87.035h7.807v8.359a1.163,1.163,0,0,1-1.162,1.162Zm2.586-13.929V85.29h0a.581.581,0,0,1-.581.581h-8.65V82.05h8.65a.581.581,0,0,1,.581.581Zm-5.538-4.853a1.556,1.556,0,1,1,0,3.112h-3.461c.445-1.116,1.511-3.112,3.461-3.112Zm-10.1,1.546a1.557,1.557,0,0,1,1.555-1.557c1.935,0,3.01,2,3.458,3.112h-3.458a1.558,1.558,0,0,1-1.555-1.555Z" transform="translate(-65.701 854.729)"/>
  </g>
</svg>
