<svg xmlns="http://www.w3.org/2000/svg" width="111" height="111" viewBox="0 0 111 111">
  <g id="Group_3202" data-name="Group 3202" transform="translate(-62.978 -64.066)">
    <circle id="Ellipse_75" data-name="Ellipse 75" cx="55.5" cy="55.5" r="55.5" transform="translate(62.978 64.066)" fill="#fff"/>
    <g id="Group_3191" data-name="Group 3191" transform="translate(79.539 100.062)">
      <g id="Group_3190" data-name="Group 3190" transform="translate(0 0)">
        <path id="Path_1171" data-name="Path 1171" d="M140.291,409.844c-1.2-6.008-3.1-10.564-10.765-10.564h-1.452c-.1,3.555-.15,8.061-.15,11.215v20.077c0,4.206,1.752,5.257,6.559,5.608v.651s-7.861-.15-9.913-.15c-2.2,0-10.014.15-10.014.15v-.651c4.907-.35,6.459-1.4,6.459-5.608V410.5c0-3.154-.05-7.11-.15-11.215h-1.2c-8.511,0-9.663,4.156-11.015,10.564h-.5c0-1.552.05-5.708.05-7.66,0-1.552-.05-3.1-.05-4.456,2.453.25,4.757.3,6.058.3,1.652,0,5.257.1,7.41.1h5.858c2.053,0,5.758-.1,7.36-.1,1.2,0,3.455-.05,6.058-.3-.1,1.352-.1,2.9-.1,4.456,0,1.953,0,6.108.1,7.66Z" transform="translate(-108.147 -397.728)"/>
        <path id="Path_1172" data-name="Path 1172" d="M502.006,439.559q-4.656-.15-9.313-.15c-3,0-6.108.05-9.112.15v-.651c4.256-.3,5.658-.851,5.658-5.608V420.544c-3-.1-5.958-.1-8.962-.1-2.8,0-5.608.1-8.511.1V433.3c0,4.757,1.6,5.307,5.758,5.608v.651c-3.1-.1-6.158-.15-9.212-.15-3.1,0-6.108.05-9.213.15v-.651c4.206-.3,5.708-.851,5.708-5.608V407.115c0-4.857-1.452-5.407-5.708-5.608v-.751c3.1.1,6.108.2,9.213.2,3.054,0,6.108-.1,9.212-.2v.751c-4.256.2-5.758.851-5.758,5.608l0,10.958h7.51c3.3,0,6.609-.05,9.963-.05l0-10.908c0-4.857-1.4-5.407-5.658-5.608v-.751c3,.1,6.108.2,9.112.2,3.1,0,6.208-.1,9.313-.2v.751c-4.206.2-5.758.851-5.758,5.608V433.3c0,4.757,1.652,5.307,5.758,5.608Z" transform="translate(-424.301 -400.456)"/>
      </g>
    </g>
  </g>
</svg>
