<svg xmlns="http://www.w3.org/2000/svg" width="70" height="70" viewBox="0 0 70 70">
  <g id="The_Hindu" data-name="The Hindu" transform="translate(-62.263 -64.337)">
    <circle id="Ellipse_75" data-name="Ellipse 75" cx="35" cy="35" r="35" transform="translate(62.263 64.337)" fill="#b00020"/>
    <g id="Group_3191" data-name="Group 3191" transform="translate(73.256 86.673)">
      <g id="Group_3190" data-name="Group 3190" transform="translate(0 0)">
        <path id="Path_1171" data-name="Path 1171" d="M128.245,405.3c-.751-3.757-1.941-6.605-6.731-6.605h-.908c-.063,2.223-.094,5.04-.094,7.012v12.553c0,2.63,1.1,3.287,4.1,3.506v.407s-4.915-.094-6.2-.094c-1.377,0-6.261.094-6.261.094v-.407c3.068-.219,4.038-.877,4.038-3.506V405.711c0-1.972-.031-4.445-.094-7.012h-.751c-5.322,0-6.042,2.6-6.887,6.605h-.313c0-.97.031-3.569.031-4.79,0-.97-.031-1.941-.031-2.786,1.534.156,2.974.188,3.788.188,1.033,0,3.287.063,4.633.063h3.663c1.283,0,3.6-.063,4.6-.063.751,0,2.16-.031,3.788-.188-.063.845-.063,1.816-.063,2.786,0,1.221,0,3.819.063,4.79Z" transform="translate(-108.147 -397.728)" fill="#fff"/>
        <path id="Path_1172" data-name="Path 1172" d="M485.926,425.017q-2.911-.094-5.823-.094c-1.878,0-3.819.031-5.7.094v-.407c2.661-.188,3.537-.532,3.537-3.506v-7.976c-1.878-.063-3.725-.063-5.6-.063-1.753,0-3.506.063-5.322.063V421.1c0,2.974,1,3.318,3.6,3.506v.407c-1.941-.063-3.851-.094-5.76-.094-1.941,0-3.819.031-5.76.094v-.407c2.63-.188,3.569-.532,3.569-3.506V404.732c0-3.036-.908-3.381-3.569-3.506v-.47c1.941.063,3.819.125,5.76.125,1.909,0,3.819-.062,5.76-.125v.47c-2.661.125-3.6.532-3.6,3.506l0,6.851h4.7c2.066,0,4.132-.031,6.23-.031l0-6.82c0-3.036-.877-3.381-3.537-3.506v-.47c1.878.063,3.819.125,5.7.125,1.941,0,3.882-.062,5.823-.125v.47c-2.63.125-3.6.532-3.6,3.506V421.1c0,2.974,1.033,3.318,3.6,3.506Z" transform="translate(-437.341 -400.568)" fill="#fff"/>
      </g>
    </g>
  </g>
</svg>
