<svg xmlns="http://www.w3.org/2000/svg" width="660" height="62.13" viewBox="0 0 660 62.13">
  <path id="Path_1" data-name="Path 1" d="M660,4.592v-1l-10.408.224-12.2-.224v1C646.453,5.04,648.7,8.513,648.7,18.14V38.846c0,12.537-4.144,19.587-16.343,19.587-11.309,0-14.328-7.273-14.328-18.691V12.652c0-6.831,2.233-7.721,8.284-8.06v-1l-13.214.224-13.427-.224v1c6.045.339,8.278,1.119,8.278,8.06V42.991c0,14.323,11.756,17.681,22.612,17.681,12.767,0,20.488-6.269,20.488-20.821V18.14c0-6.957.431-11.767,6.159-13.16Zm-73.547,28.1-.18,4.942C585.4,48.642,581.309,55.9,571.12,57.761a19.266,19.266,0,0,1-4.587.339c-5.6-.115-7.727-2.577-7.727-8.731V6.045a24.991,24.991,0,0,1,5.035-.557c14.59,0,21.7,9.742,22.53,24.239l.082,2.965M588.3,53.835l1.835-1.573c4.658-4.461,7.4-11.123,7.4-20.69,0-20.379-14.661-27.985-31.567-27.985L554.1,3.811l-13.771-.224v1c6.159.339,8.289,1.119,8.289,8.169v38.06c0,6.94-2.244,7.727-8.289,8.174v.9L554,59.667c3.129,0,6.269.224,9.4.333a45.033,45.033,0,0,0,7.841-.224,35.584,35.584,0,0,0,15.06-4.565l2.009-1.376M537.428,4.592v-1l-9.294.224-11.642-.224v1c9.179.339,10.522,6.045,10.522,14.891V49.03L489.07,3.7H474.4v1.01a14.563,14.563,0,0,1,4.925.781c4.7,1.9,5.149,8.507,5.149,13.209V44c0,7.273,0,14.438-8.169,15v.9c3.129-.115,6.378-.339,9.512-.339,3.806,0,7.5.224,11.194.339V59c-8.731-.562-10.3-6.493-10.3-15V16.458l36.716,44.1h5.821V19.483c0-6.509.2-13.509,6.771-14.727l1.4-.164m-66.159,55.3V59c-6.045-.448-8.4-1.234-8.4-8.174V12.761c0-6.94,2.244-7.83,8.4-8.169v-1l-13.324.224-13.427-.224v1c6.154.339,8.284,1.119,8.284,8.169v38.06c0,6.94-2.244,7.727-8.284,8.174v.9l13.427-.224,13.324.224m-31.791,0V59c-5.936-.448-8.393-1.234-8.393-8.174V12.761c0-6.94,2.348-7.83,8.393-8.169v-1l-13.542.224-13.214-.224v1c6.159.339,8.174,1.119,8.174,8.169V29.667l-14.443.115H395.6V12.761c0-6.94,2.13-7.83,8.284-8.169v-1l-13.324.224L377.13,3.588v1c6.154.339,8.278,1.119,8.278,8.169v38.06c0,6.94-2.239,7.727-8.278,8.174v.9l13.427-.224,13.324.224V59c-6.045-.448-8.284-1.234-8.284-8.174V31.458l12.313-.109,12.985.109V50.821c0,6.94-2.015,7.727-8.174,8.174v.9l13.214-.224,13.542.224m-75.224-2.577.672-.2.672-.36.448,1.791c-.333,0-.448.224-.781.333l-.339-.906-.672-.661m-1.343,1.906H361.9c.115-.9.448-1.567,1.349-1.567.781,0,1.229.781,1.343,1.452l-1.682.115m-1.791-27.313h.109v.115M361,33.134l-.333-.218c0-.224.109-.448.333-.448a.3.3,0,0,1,.339.333l-.087.251-.251.082m.115-.781-.448.224-.224-.557a.356.356,0,0,0,.333-.339h.115v.224l.224.448M360,31.8l-.109-.115.109-.224.224.224m-.448,1.01-.448-.224c0-.224.224-.339.448-.339.115,0,.224.115.224.339l-.224.224m.115-1.458-.115.339.115.333a.773.773,0,0,0-.562.339V32.13l-.224-.557h.115l.448-.339h.224M359,58.771l.42-.983a1.054,1.054,0,0,1,.923-.475c.781,0,.89,1.234.89,1.682V59.1L359,58.771m-.115-27.537-.109-.109.109-.115.115.115m-.339-.562v.448l.115.448-.115-.109-.557.224.109-.224-.224-.339.421-.142m.169,1.25-.251.126-.339-.339.115-.224h.224c.224,0,.333.115.333.224l-.082.213m-.7-1.556-.115-.109.115-.115.109.115m-.508-.224.06.333-.339.115a.69.69,0,0,0,0-.672l.339-.115h.224l-.284.339m-.388,28.99.224-.224,1.119.224M357.09,30.9l.224-.115.224.339-.224.333a.36.36,0,0,1-.339-.333V31.01l.115-.109m0-1.458-.115.224-.109-.224.109-.115m2.048,26.478,2.321.278a7,7,0,0,0,3.582-.781l.672.666a5.749,5.749,0,0,1-3.134,1.01c-1.119,0-5.373-.448-5.712-1.676l.115-.115,2.157.617m-2.157,2.4-.224-.109c0-.448.224-1.458.9-1.458s.9.672.9,1.234l-.109.672-.672-.115c.109-.333.333-.557.333-.9l-.519.382-.6.289m-.339,1.682.339-.339a67.04,67.04,0,0,0,8.174.9c2.009,0,4.03-1.119,4.03-3.358a2.378,2.378,0,0,0-.9-1.9,3.09,3.09,0,0,1,1.8.448,1.264,1.264,0,0,0,.333-.9,2.5,2.5,0,0,0-.672-1.567,3.883,3.883,0,0,1,2.13,3.358c0,3.358-3.588,4.478-6.159,4.478a43.022,43.022,0,0,1-5.482-.786l-1.753-.208-1.835-.126m-.448-30h.224c.224,0,.339,0,.339.224a.3.3,0,0,1-.339.339l-.224-.115v-.448L355.97,28.1l.781,1-.109.562-.24.027m-1.1,29.186.781-1-.109.224.224.448m-1.229-28.094.246.513.087.606c0,.224-.115,1.229-.333,1.229s-.224-1-.224-1.229l.027-.606.2-.513m-.027,9.037.027.7-.224,1.119c-.224,0-.224-1.01-.224-1.234,0-.109,0-1.119.224-1.119l.2.535m.027-15.868-.016.311-.1.137c-.224.115-.448-1.458-.448-1.791l.115-.448c.109-.055.224.339.306.77l.142,1.021m0,11.751.344.142.1.306a.529.529,0,0,1-.557.562.617.617,0,0,1-.448-.562l.2-.306.366-.142m.18-8.628.153.349a.507.507,0,0,1-.557.442.476.476,0,0,1-.448-.442.409.409,0,0,1,.448-.448l.4.1M354.878,42.8l.2.41a.6.6,0,0,1-.557.557c-.448,0-.672-.224-.672-.557s.224-.562.672-.562l.36.153m.087-13.362-.524-.475a2.757,2.757,0,0,1-.71-1.764,3.165,3.165,0,0,1,.786-1.9,2.4,2.4,0,0,0-.448,1.676l.235,1.36.661,1.1m-.115,4.363-.6,1.027-.18,1.1a3.16,3.16,0,0,0,.448,2.015,3.32,3.32,0,0,1-.9-2.015l.322-1.147.906-.983m-1.791,8.4.24-.322.322-.24-.339.677m.115-23.507.4.1.153.349a.511.511,0,0,1-.557.448.482.482,0,0,1-.448-.448l.142-.349.306-.1m0,2.463-.923-1.01a2.475,2.475,0,0,1-.421-1.343,3.3,3.3,0,0,1,.781-1.791,3.752,3.752,0,0,0-.333,1.682l.235,1.311.661,1.152m-.224,9.96-.295,1.245-.715.994a3.064,3.064,0,0,0,.562-2.239A4.178,4.178,0,0,0,351.94,29a2.855,2.855,0,0,1,1.152,1.589l.082.65m-.339,24.4-.055-.7-.393-.535h-.448a6.424,6.424,0,0,1,2.463-3.691c1.343,1.119,2.463,2.124,2.8,3.921h-.672l-.967-1.4-1.381-1.065a7.642,7.642,0,0,1,.562,2.692,4.142,4.142,0,0,1-.672,2.348l-.491-.868-.743-.7m-.841-13.389.508-.158a.562.562,0,0,1,0,1.125c-.448,0-.677-.224-.677-.562l.169-.4m-.055-7.208-.224.9-.115-.786a1.059,1.059,0,0,1,.224-.781l.115.672m.42-12.313.268.584.1.65a3.323,3.323,0,0,1-.9,2.015,4.364,4.364,0,0,0,.453-2.015,2.944,2.944,0,0,0-.786-2.13l.868.9m-.42,8.06.366.18.2.268a.725.725,0,0,1-.562.672c-.339,0-.448-.333-.448-.672l.142-.311.306-.137m-.448,10.522.5-.977.169-1.152a3.541,3.541,0,0,0-.562-2.124,3.165,3.165,0,0,1,1.01,2.015,2.586,2.586,0,0,1-.349,1.245l-.77.994m.448-13.324-.087.661-.251.573-.224-1.234.224-1.338c.169,0,.251.306.295.628l.044.71m-.9,14.891,1.119-1.736a3.993,3.993,0,0,0,.786-1.736c0-1.229-.9-2.348-.9-3.691,0-1.791,1.9-2.687,1.9-4.254,0-1.452-1.567-2.353-1.567-3.921,0-1.452,1.119-2.457,1.119-3.915,0-1.9-2.463-2.124-2.463-4.811,0-1.01.781-1.791.557-2.8l.224.9-.333,1.906.109.825c.5,1.72,2.468,2.124,2.468,3.986,0,1.458-1.119,2.577-1.119,3.915s1.567,2.353,1.567,3.921c0,1.676-1.791,2.687-1.791,4.363,0,1.234.781,2.353.781,3.582a2.892,2.892,0,0,1-.9,1.906l-1.567,1.567m-.115-20.488v-.557a1.5,1.5,0,0,1,.224-1l.115.557-.339,1m.562,1.01.366.213.2.459a.787.787,0,0,1-.562.448.6.6,0,0,1-.562-.557l.2-.366.366-.2m.786,32.8-.24,1.081-.661.825h-.448l-.557-1.906m.781-39.736-.18.349-.268.1c-.333,0-.557-.115-.557-.448a.511.511,0,0,1,.557-.448l.268.142.18.306m.224,25.632-.268.464-.513.213a.648.648,0,0,1-.672-.677c0-.448.224-.781.672-.781l.513.224.268.557m4.368,2.463.36-4.308.2-4.308-.109-4.925a.531.531,0,0,0,.672.115l-.115.224a.748.748,0,0,0,.672.781l.562-.109-.109.109a.839.839,0,0,0,.781.786.625.625,0,0,0,.562-.339s.333.781.781.781l.562-.224a.717.717,0,0,0,.666.672c.562,0,.786-.333.786-.672s-.115-.666-.448-.666c.224-.115.448-.448.333-.562h1.458l-.224,1.9v.115a5.414,5.414,0,0,1-2.463,1.343,5.717,5.717,0,0,0,2.348-.672l-.224.672a3.794,3.794,0,0,1-2.015,1.229,3.723,3.723,0,0,0,1.791-.557l-.109.557a4.7,4.7,0,0,1-2.015,1.234,4.706,4.706,0,0,0,1.791-.448l-.224.672a10.38,10.38,0,0,1-2.124,1.229,5.367,5.367,0,0,0,1.9-.557l-.224.557-1.791,1.01,1.453-.339-.666,1.567a17.739,17.739,0,0,1-2.015,1.125l1.676-.453a7.691,7.691,0,0,0-1,2.8l.224,1.343a3.657,3.657,0,0,1-1.458,1.452,5.881,5.881,0,0,0,1.682-.9A11.908,11.908,0,0,0,361,48.7a4.992,4.992,0,0,1-1.562,1.119,2.837,2.837,0,0,0,1.786-.786l.448.453a2.844,2.844,0,0,1-1.338,1.229,2.13,2.13,0,0,0,1.562-.786l.448.448a2.351,2.351,0,0,1-1.453,1.119H361a2.205,2.205,0,0,0,1.567-.672l.224.224a2.627,2.627,0,0,1-1.453,1.234,3.72,3.72,0,0,0,1.791-.786l.672,1.234s-.672,1.119-1.343,1.229a2.822,2.822,0,0,0,1.682-.672l.109.115c-.448.557-.9,1.119-1.458,1.234a3.12,3.12,0,0,0,1.682-.677l.224.677a5.609,5.609,0,0,1-3.358.89,8.789,8.789,0,0,1-4.03-.89,2.316,2.316,0,0,0-.339-1.458h.562l1.343-.115a2.708,2.708,0,0,1-2.8-1.567l.9.115,1.01-.115a4.278,4.278,0,0,1-3.02-1l1,.109,1.119-.109a4.918,4.918,0,0,1-3.582-1.458,4.977,4.977,0,0,0,1.791.339l1.119-.109h-.448c-3.691,0-5.373-3.588-6.493-6.607l3.178.781,3.091,1.119m-7.164-12.647-.333-.109.448-.224.224.224m-.535,4.56-.251-.2c0-.448.672-.562.9-.562.339,0,.781.115.781.339,0,.448-.781.448-1,.448l-.42-.027M348.7,33.7l-.339.109a.5.5,0,0,1-.333-.448l.109-.109.322.142.24.306m.224.333.415.044.251.295c0,.333-.666.557-.89.557s-.672-.109-.672-.448c0-.164.169-.278.366-.349l.53-.1m.224,3.14.415.093.251.355c0,.333-.781.448-1,.448V38.4c0,.115,0,.781-.448.781-.224,0-.333-.666-.333-.781,0-.59.186-.988.612-1.147l.508-.082M347.8,27.876l.109-.278a1.365,1.365,0,0,1,.9-.278c.224,0,.672,0,.672.333s-.672.557-1,.557l-.42-.082-.251-.251m.781,12.985.519.169.268.5c0,.333-.448.672-.786.672a.748.748,0,0,1-.781-.672l.224-.5.557-.169m-.9,17.572,3.134.115a2.665,2.665,0,0,1-1.343.333l-.9-.137-.9-.311m.9-32.681.475.082.311.251c0,.448-.786.562-1.01.562s-.781-.115-.781-.448c0-.169.169-.284.377-.349l.628-.1m-.9,4.478h-.109c0-.339.224-.339.448-.448l-.224-.224c0-.339.781-.562,1-.562s.672.109.672.333c0,.562-1,.562-1.343.562l-.1.251-.349.087m.339,4.92v.115l-.349-.082-.1-.257v-.109l.306.082m-.306,22.863.475-.923a1.369,1.369,0,0,1,.977-.42c.9,0,1.119.786,1.119,1.458v.109l-2.572-.224m.137-32.878-.251-.251c0-.339.786-.562,1.01-.562s.672.115.672.448-.786.448-1.01.448l-.42-.082m.42-8.649-.322.306-.573.142c-.224,0-.672-.115-.672-.448s.786-.448,1.01-.448l.36.1.2.349m-1.906,12.985V29c0-.224.115-.448.339-.448l.115.115-.142.36-.311.2m.229,6.94-.115.224-.224-.448.109-.224m.229,1.343.257.093a.962.962,0,0,1,.191.693c0,.224,0,.89-.448.89-.229,0-.339-.666-.339-.89l.082-.481.257-.306m.333,3.244.519.213.268.459a.741.741,0,0,1-.786.672.594.594,0,0,1-.672-.672l.169-.459.5-.213m-.1-14.115.213.464a.682.682,0,0,1-.677.781c-.557,0-.9-.224-.9-.781,0-.339.339-.672.9-.672l.464.207m.322-11.849-.333.71a.89.89,0,0,1-.677.295c-.672,0-1.119-.333-1.119-1l.224-.672,1.906.672m-.8,38.688-1.556-.857c.672-.9,2.8-5.6,2.8-6.6a2.557,2.557,0,0,0-.333-1.234l2.457-.109.9,1.9-.557.115a3.565,3.565,0,0,1-1.676-.672,3.131,3.131,0,0,0,2.572,1,10.216,10.216,0,0,0,1.906,2.577h-.448a6.648,6.648,0,0,1-3.582-1.01,6.919,6.919,0,0,0,4.478,1.458l.781.781-.557.448a7.77,7.77,0,0,1-4.478-1c.89.9,2.8,1.343,4.03,1.567l-.672.781h-.224a9.568,9.568,0,0,1-4.145-1.119,9.035,9.035,0,0,0,4.145,1.682l-.453.672h-.224a7.245,7.245,0,0,1-4.248-1.234c.9,1.119,3.02,1.682,4.248,1.791l-.109.448a11.905,11.905,0,0,1-3.429-.7l-1.622-.683M344.661,28.1l.224.333c0,.229-.109.229-.224.339-.109-.109-.224-.109-.224-.339l.224-.333m.011,8.841.213-.109c.224,0,.339.672.339.9,0,.115-.115.786-.339.786-.333,0-.448-.672-.448-.786l.1-.535.137-.251m-.011-.781.115.224-.339.448-.109-.448.082-.115m-.082,7.5.224-1.906,4.816.786.218,1.458-2.67-.087m-2.7,13.182.562-1.108c.251-.377.557-.683.9-.683.9,0,1.234,1.343,1.234,2.015v.224l-2.692-.448m.562-17.13.513.186a.747.747,0,0,1,.268.6c0,.333-.448.672-.781.672a.753.753,0,0,1-.786-.672l.224-.6.562-.186m-.224-13.542-.087.437-.251.349c-.333,0-.442-.672-.442-.786,0-.224.109-.9.442-.9l.251.366.087.53m-1.229,26.751v-.109a1.163,1.163,0,0,1,.448-.9c2.457,2.015,5.373,2.463,8.393,2.687V55.3l-.109.442h-1.01a15.89,15.89,0,0,1-6.17-1.414l-1.551-1.048m1.338-22.721.661.153a2.018,2.018,0,0,1,1.136,1.753,1.95,1.95,0,0,1-1.8,1.9,1.862,1.862,0,0,1-1.786-1.9,1.939,1.939,0,0,1,1.081-1.753l.7-.153m-1.72-1.917.044.349v.224l-.333-.448v-.224m.109,7.836h-.109v-.224a.5.5,0,0,1,.333-.448l.115.109-.087.366-.251.2m.126.557.213-.109c.333,0,.448.562.448.9,0,.115-.115.672-.448.672s-.448-.557-.448-.672l.1-.535.137-.251m-.349,6.722.251-1.01.087-1.01,1,.115-.224,2.015m-.4-26.314.3-.4.322-.153c1,0,1.567,3.358,1.567,4.145,0,1-.448,1.786-1.567,1.786s-1.567-.781-1.567-1.786l.448-2.326.5-1.267m-.47,30.988-.251.137-.224-.448h.562m.4-8.016.268.519c0,.333-.448.672-.786.672a.647.647,0,0,1-.672-.672.741.741,0,0,1,.672-.786l.519.268m-.726-21.547L341.98,21.5a1.887,1.887,0,0,0,1.9,1.9c1.343,0,1.791-.9,1.791-2.015,0-.9-.786-5.149-1.791-5.149-.251,0-.5.278-.721.71l-.606,1.627m.546,35.946.322.344a3.133,3.133,0,0,1,.235,1.447v.781l-1.174-.431c-.448-.18-.841-.4-.841-.688s.279-.584.6-.852l.857-.6m-1.343-28.433.557-.224c.448,0,.672.339.672.786s-.224.781-.672.781a.761.761,0,0,1-.781-.781l.224-.562m.431,6.482.4.137.175.213c0,.218-.672.781-.9.89l1.01-.224.224.224-.339,1.01a1.988,1.988,0,0,1,.9-.562c.333,0,.333,1.01.224,1.234.109-.115.557-1.01.781-1.01s.562.786.672.9v-.224s0-.9.224-.9a2.651,2.651,0,0,1,1.01.672l-.339-1.119c0-.109,0-.224.229-.224l1,.224c-.224-.109-.9-.557-.9-.89s1.01-.448,1.119-.448c-.109,0-1.119-.115-1.119-.448s.672-.786.9-.9l-1,.109-.229-.109a2.149,2.149,0,0,1,.339-1.119,1.5,1.5,0,0,1-1.01.672c-.333,0-.224-1.01-.224-1.234-.109.224-.448,1.01-.672,1.01-.333,0-.557-.786-.672-1.01v.448c0,.339,0,.786-.333.786s-.672-.339-.9-.562a1.505,1.505,0,0,1,.339.9c0,.224-.115.224-.339.224l-1-.109c.224.109,1,.557,1,.9s-1.119.448-1.229.448l.655.1m-.879-2.785h.109c.224-.115.339.109.339.333h-.115l-.333-.333m.289,5.231-.289.137h-.115l-.109-.109c0-.224.333-.339.557-.339l-.044.311m.186,2.348.082.481c0,.224-.109.781-.333.781-.448,0-.448-.557-.448-.781s0-.786.448-.786l.251.306m-.7,9.206v-.109h.557l-.557-.224v-.115l.672.115-.562-.339.115-.109h.448l-.448-.224.109-.115.562.115h.224c-.224,0-.562-.115-.562-.339v-.109l.786.109-.562-.333.672-.115c1.119,0,1.452.9,1.676,1.791a4.394,4.394,0,0,1-1.562.562l-.825-.2-.743-.366m-.224-14.1.683-.366.77-.2c-.224-.224-1.229-.672-1.229-1,0-.224.224-.224.333-.224l1.458.333a2.508,2.508,0,0,1-.672-1.343l.109-.109v-.115c.339,0,1.01.562,1.343.9l-.109-.9.109-.672c.557,0,.9,1.01,1,1.234.115-.115.562-1.343.9-1.343.224,0,.115,1.343.115,1.676.333-.333.786-.9,1.234-.9l.109.339a2.744,2.744,0,0,1-.448,1.229,2.17,2.17,0,0,1,1.119-.333c.339,0,.448,0,.448.224a1.493,1.493,0,0,1,.9-.339c.224,0,.672,0,.672.448,0,.224-.781.448-.9.448-.224,0-.781-.109-.781-.333a2.048,2.048,0,0,1-1.119.781,2.789,2.789,0,0,1,1.453.339l.786-.224c.224,0,.666.109.666.448s-.781.448-1,.448-.557,0-.672-.224a3.207,3.207,0,0,1-1.119.333c.224.109,1.119.672,1.119,1,0,0,0,.224-.448.224a2.537,2.537,0,0,1-1.229-.333,2.566,2.566,0,0,1,.672,1.343l-.224.224c-.448,0-1.01-.562-1.234-.9v.781c0,.115,0,.786-.115.786-.448,0-.781-1.01-.9-1.234-.109.224-.448,1.234-.89,1.234-.339,0-.115-1.234-.115-1.458a2.37,2.37,0,0,1-1.343.786l-.109-.224c0-.339.448-.9.672-1.343l-1.458.333-.224-.109h-.109c0-.339,1-1.01,1.229-1.119l-.808-.2-.644-.36m-.115,14.438.115-.115a2.717,2.717,0,0,0,3.577,0h.115v.115c0,.557-1.567,1-1.9,1a3.153,3.153,0,0,1-1.791-.672l.448.115-.562-.448m.9-33.921.715.295.295.715a1,1,0,0,1-1.01,1.01A1.106,1.106,0,0,1,340.522,14a.963.963,0,0,1,.349-.715l.77-.295m-.431,27.188.208.464c0,.333-.333.781-.672.781a.951.951,0,0,1-.786-.781c0-.339.448-.672.786-.672l.464.207m-.016-7.039-.093.262a.989.989,0,0,1-.693.186c-.224,0-.9-.109-.9-.448s.562-.442.786-.442l.53.137.366.306m-.109-6.487-.295.2-.382.027a1.209,1.209,0,0,1-.9-.224l-.109-.224.109-.224.562-.224a1.323,1.323,0,0,1,.9.377l.109.295m0,3.244-.295.251-.382.087a1.278,1.278,0,0,1-.9-.339v.562l-.109-.786.109-.109c.115-.229.448-.229.672-.229a1.217,1.217,0,0,1,.792.289l.109.273m0,5.035-.295.257-.382.082-.9-.224-.109-.224.109-.224.562-.115a1.479,1.479,0,0,1,.9.191l.109.257m-1.573-6.94.279-.2.284-.027c.333,0,1.01.115,1.01.448s-.677.339-.786.339l-.786-.115-.224-.333.224-.115m0-6.487.535-.311.7-.137a2.342,2.342,0,0,1,1.119.448v-.672l-.672-.224-.9.224c-.448,0-.786-.224-.786-.672a.881.881,0,0,1,.9-.9,1.856,1.856,0,0,1,1.682.9l.115-.786c-.448-1.119-1.8-.109-1.8-1.229,0-.224.339-.448.677-.448a1.485,1.485,0,0,1,1.229.9l.224-.448c-.224-1.01-1.343-.224-1.343-1.234a.482.482,0,0,1,.448-.448c.562,0,.9.448,1.234.9l.109-.448c-.224-.672-.9-.448-.9-1l.224-.339c.562,0,.786.562,1.01.9.109-.224.224-.224.333-.224l-.109-.9c0-.224.109-.448.333-.448s.333.115.333.448l-.224.786c.224.109.339.109.448.333.115-.333.448-.9.786-.9l.224.115.109.333c0,.333-.672.224-.781.9l.109.562A1.3,1.3,0,0,1,346,16.458c.224,0,.453.333.453.562,0,.557-1.01.224-1.349,1l.224.562c.339-.448.9-1.01,1.458-1.01a.725.725,0,0,1,.562.562c0,.781-1.458.224-1.8,1.119l.115.672a1.935,1.935,0,0,1,1.343-.672,1.013,1.013,0,0,1,1.119.9.628.628,0,0,1-.557.672l-1.349-.224-.448.109.115.786a2.364,2.364,0,0,1,1.119-.448,1.342,1.342,0,0,1,1.343,1.229c0,.448-.224.672-.557.672-.562,0-.9-.672-1.573-.672h-.557l-.115.448c.672,0,1.682.448,1.682,1,0,.453-.781,1.125-1.234,1.125s-.557-1.125-1.229-1.458l-.562.224a1.065,1.065,0,0,1,.562.9,1,1,0,0,1-1,1.01.914.914,0,0,1-.9-1.01.935.935,0,0,1,.672-1.01l-.562-.109c-.9.224-.781,1.458-1.343,1.458-.448,0-1.234-.672-1.234-1.01,0-.672,1.234-1.119,1.8-1.119l-.224-.448h-.448c-.9,0-1.01.672-1.682.672l-.339-.224a.62.62,0,0,1-.333-.562l.333-.666m0,14.547h.339c.333,0,1.01,0,1.01.448,0,.229-.453.453-.677.453l-.672-.224a.506.506,0,0,1-.448-.339l.448-.339m0-11.636.53.153c.2.1.366.235.366.4,0,.339-.672.339-.9.339-.333,0-.781-.115-.781-.562l.306-.251.475-.082m0-6.607.306.126.142.213c0,.224-.333.333-.448.448h-.333c-.224,0-.9-.115-.9-.448,0-.284.224-.393.491-.42l.737.082m0-1.676.153.126.071.207-.224.448h-.448c-.224,0-.89-.115-.89-.562,0-.218.442-.333.666-.333l.672.115m0-1.567.224.333-.224.115-.557.109c-.339,0-1-.109-1-.448s.442-.333.666-.333l.448.027.448.2M339.4,40.637l-.224.519-.562.262c-.333,0-.666-.448-.666-.781a.717.717,0,0,1,.666-.672l.562.207.224.464m0-27.537-.251.349-.42.1c-.339,0-1-.115-1-.562,0-.224.557-.333.666-.333a1.638,1.638,0,0,1,.9.235l.109.213m-1.9,23.169-.027.661-.2.573c-.115,0-.115-1.119-.115-1.234s0-1.229.115-1.229l.2.573.027.655m.18-4.166.153.366a.527.527,0,0,1-.557.557.511.511,0,0,1-.448-.557c0-.224.224-.562.448-.562l.4.2m1.829.142.224.109h-.224c-.333.115-.557.224-.557.562a1.14,1.14,0,0,0,.557.89l.224.115h-.224c-.333.109-.672.333-.672.557a1.3,1.3,0,0,0,.672,1.01l.115.109h-.115c-.333.115-.9.115-.9.672,0,.339.448.677.672.786-.333.224-.781.448-.781.786a.68.68,0,0,0,.333.672,1.76,1.76,0,0,1,.672-.9l.448-.115.448.224c0,.448-.672.9-.9,1.119v.224l.339.109c.557,0,.672-.448.781-.781a1.1,1.1,0,0,0,.9.781c.448,0,.672-.333.781-.781,0,.448.339.9.672.9.562,0,.786-.448.9-.9.224.333.448.9,1,.9.339,0,.672-.562.672-.9a1.318,1.318,0,0,0,1.125,1,1.158,1.158,0,0,0,.781-.557c.115.333.339,1,.786,1a.83.83,0,0,0,.781-.672c.115.339.339.672.672.672a.739.739,0,0,0,.672-.781c0-.557-.672-.672-1.119-.557.224-.448,1.229-.448,1.229-1.01,0-.781-.672-.672-1.229-.672.333-.448,1.229-.448,1.229-1.119,0-.562-1-.562-1.338-.562.333,0,1.229-.557,1.229-1,0-.339-.9-.672-1.229-.672.333-.224,1.229-.557,1.229-1,0-.562-.339-.672-.786-.672a1.084,1.084,0,0,0,.786-1.01c0-.448-.562-.672-.9-.672.224-.224.781-.557.781-1.01s-.448-.557-.781-.557a1.423,1.423,0,0,0,.781-1.119c0-.333-.781-.557-1-.672.333-.109.9-.448.9-.9s-.672-.672-.9-.672c.224-.224.9-.557.9-1.119,0-.339-.672-.562-.9-.562a1.288,1.288,0,0,0,.672-1c0-.448-.781-.672-1.119-.672a1.482,1.482,0,0,0,.672-1c0-.448-.672-.562-.9-.672a1.087,1.087,0,0,0,.786-.9c0-.562-.786-.672-1.234-.672.339-.224.786-.562.786-1.01,0-.333-.786-.557-1.119-.672.333-.115.9-.672.9-1s-.448-.562-.672-.562l.333-.557.9.224a115.5,115.5,0,0,1,1.791,17.348c0,2.8,0,5.821-.224,8.617a35.782,35.782,0,0,0-9.179-1.343h-2.13l-1.786.224a46.226,46.226,0,0,0,.666-7.83v-.786a111.015,111.015,0,0,0-1.9-19.145l1.567.115-.628.262-.268.224-.109.295c0,.677.557.786,1,.9-.333.109-.9.448-.9.781,0,.448.786.9,1.229.9-.333.115-1,.448-1,.781,0,.562.786.786,1.119.9-.224.109-.781.333-.781.672s.666.9,1,.9a1.235,1.235,0,0,0-.781.9c0,.448.666.672,1,.781-.339.115-1,.339-1,.9,0,.339.666.672,1.114.781-.333.115-.89.448-.89.786,0,.448.666.9.89,1.01-.224.109-.672.448-.672.781s.672.672.9.786c-.224.224-.9.557-.9.9s.672.781,1.01.9c-.339,0-.786.333-.786.666,0,.448.448.786.9.9l.115.115h-.115c-.448.109-.781.224-.781.672l.224.573.557.322h.115l-.115.115c-.333,0-.781.333-.781.557l.268.546.513.464-.109-.9.109-.115.672-.109c.224,0,.9.109.9.448s-.562.333-.677.333a.934.934,0,0,1-.9-.333v.672m-3.02,25.965.044-.349-.044-.431a13.66,13.66,0,0,1,3.02-.115l3.7.562,2.8.672a10.878,10.878,0,0,0,3.249.9h.224c2.015,0,3.249-1.01,3.249-3.134a3.45,3.45,0,0,1,.672,1.567L353.284,59a5.882,5.882,0,0,0,2.124-5.04,3.557,3.557,0,0,1,.9,2.239,4.309,4.309,0,0,1-1.452,2.91l1.676-.333.115.109-.988.95a5.907,5.907,0,0,1-3.713,1.179c-2.463,0-4.478-1.119-6.831-1.791a23.73,23.73,0,0,0-5.6-1.234l-.557-.109-1.316.082-1.147.251m1.01-27.756-.661,1.016-.235,1.108a3.78,3.78,0,0,0,.557,1.9,2.538,2.538,0,0,1-.781-2.009,2.307,2.307,0,0,1,.612-1.622l.508-.393m.109-6.383-.142.4-.306.158-.557-.224a4.269,4.269,0,0,0,1,2.015,2.736,2.736,0,0,1-1.343-2.353,2.221,2.221,0,0,1,.786-1.791,2.9,2.9,0,0,0-.448,1.682c0-.229.224-.339.557-.339l.268.142.18.306m-1.469,16.272.464-.153a.56.56,0,0,1,0,1.119.625.625,0,0,1-.672-.562l.207-.4m.126-25.451.306.153.142.41a.482.482,0,0,1-.448.448.511.511,0,0,1-.557-.448l.153-.41.4-.153M336.159,39.4l.349.142.1.306v.115l-.115-.115c-.333,0-.672.224-.672.448l-.224-.448.153-.306.41-.142m.076-1.409.7-.268a3.972,3.972,0,0,0-1.676,3.02l-.115-1a1.9,1.9,0,0,1,.519-1.3l.568-.448M335.936,52l-.786.5a2.17,2.17,0,0,1,2.13-1.906,2.839,2.839,0,0,1,2.233,1.343,2.4,2.4,0,0,1,.339,1.343,3.288,3.288,0,0,1-.339,1.573,7.219,7.219,0,0,1-1.453,2.124l-1.567.333a1.366,1.366,0,0,0-.672-1.119c1.234-.333,2.687-.89,2.687-2.239a1.926,1.926,0,0,0-1.791-2.124l-.781.169m.333-34.532-.966-1.01a2.57,2.57,0,0,1-.377-1.343,2.49,2.49,0,0,1,.672-1.682,2.537,2.537,0,0,1-.333-1.229v-.339a2.66,2.66,0,0,1,.557,1.458l-.109.339-.115-.115a2.664,2.664,0,0,0-.333,1.343,4.048,4.048,0,0,0,.562,2.064l.442.513m-.224,10.517-.235,1.037-.661.868a2.935,2.935,0,0,0,.562-1.906,3.542,3.542,0,0,0-.786-2.124l.814.9.306,1.229m-.754-8.5.306,1.229a2.793,2.793,0,0,1-.9,2.015,3.244,3.244,0,0,0,.562-2.015,2.962,2.962,0,0,0-.786-2.124l.814.9m-.366,7.945.306.153.142.4c0,.224-.224.562-.448.562-.339,0-.448-.339-.448-.562l.1-.36.349-.2m-.339,2.13.2.53.027.7c0,.115,0,1.119-.224,1.119l-.224-1.119.224-1.229m.115,11.189.5.142.169.306c0,.448-.224.562-.672.562a.527.527,0,0,1-.562-.562l.2-.306.366-.142m-.562,18.134.295-.934a.813.813,0,0,1,.715-.519.947.947,0,0,1,.786.448,1.8,1.8,0,0,1-.814.628l-.983.377m.448-34.248-.071.655-.153.573c-.224,0-.333-1.119-.333-1.229s.109-1.234.333-1.234l.153.573.071.661m.295,9.845.268,1.234a3.06,3.06,0,0,1-.786,2.015,3.457,3.457,0,0,0,.562-2.015,3.077,3.077,0,0,0-.9-2.13l.5.4.349.5m0-14.132.153.366a.6.6,0,0,1-.557.562.725.725,0,0,1-.562-.562.719.719,0,0,1,.562-.557l.4.191m-.295,15.366-.1.366-.349.191c-.224,0-.448-.333-.448-.557a.513.513,0,0,1,.448-.562l.349.158.1.4m.841-17.768.885,1a2.322,2.322,0,0,1,.4,1.316c0,1.458-1,2.572-1,3.806,0,1.458,1.453,2.463,1.453,4.03,0,1.791-1.791,2.687-1.791,4.368,0,1.229,1.01,2.233,1.01,3.577,0,1.458-1.682,2.468-2.468,3.582.448-1,1.906-2.572,1.906-3.467,0-1.343-.9-2.353-.9-3.691,0-1.906,1.682-2.8,1.682-4.368,0-1.452-1.458-2.348-1.458-4.03,0-1.343,1.01-2.348,1.01-3.691,0-2.015-2.577-2.13-2.577-4.925,0-1.01.781-1.791.557-2.692a1.02,1.02,0,0,1,.339.786c0,.672-.339,1.234-.339,1.906a2.638,2.638,0,0,0,.4,1.442l.885,1.048m-2.184,28.624.115-.333a3.087,3.087,0,0,0,1.791-3.358A17.758,17.758,0,0,0,339.512,44l2.8.224v.224a2.157,2.157,0,0,0-1.567,2.015.6.6,0,0,0-.339.448c0,.672,1.234,1.229,1.682,1.229,0,.339.115.672.448.672.448,0,.562-.333.562-.672.557,0,1.786-.557,1.786-1.229a.482.482,0,0,0-.448-.448,2.14,2.14,0,0,0-1.676-2.015v-.115a25,25,0,0,0,4.145,0v.224l-.306,1.769c-.568,1.851-1.769,3.888-2.272,5.734l-.448-.224c-.672,0-1.119.9-1.119,1.452l.339.672c-.9.224-2.015,1.125-2.015,2.13,0,.557.448.781.781,1l-2.353-.109h-1.119l1.119-1.234a3.885,3.885,0,0,0,.9-2.463,3.108,3.108,0,0,0-.9-2.348,3.3,3.3,0,0,0-2.233-.9c-1.682,0-2.244,1.229-2.244,2.687v.557a1.8,1.8,0,0,1,1.573-.9,1.3,1.3,0,0,1,1.343,1.343c0,1.125-1.343,1.906-2.13,2.239v-.109c0-.672-1.343-1-1.906-1.119a11.774,11.774,0,0,1-.781-4.816l-.027-1.676.137-1.682m0-32.681-.109.448a2.451,2.451,0,0,1-.448-1.458v-.339l.4.672.153.677m0,25.069.115.339c0,.333-.224,1.791-.562,1.791-.218,0-.218-.224-.218-.339A4.762,4.762,0,0,1,333,39.19l.246-.235m.126,2.435.213.366a.633.633,0,0,1-.672.562.532.532,0,0,1-.557-.562.6.6,0,0,1,.557-.562l.459.2m-2.026,18.162.393-.628a1.026,1.026,0,0,1,.726-.377,3.858,3.858,0,0,1,1.229.557l-2.348.448M330,23.961l-.055-.366-.393-.2-.115.109.229.786-.229,1.01.41-.59m.825-11.505-.557-.224-1.125-1.9.677.333m-.9,46.906h-.333l.109-.9c1.8,0,4.7-.224,5.6-2.124.339.109,1.01.333,1.01.666,0,1.431-2.894,2.037-4.865,2.25l-1.518.1m.115-35.821-.1-.573c-.071-.18-.186-.322-.349-.322l-.224.115-.115.109c0,.224.448.448.448.9a9.132,9.132,0,0,1-.448,1.682l.562-.868.224-1.037m-.311,37.246-.584-.2c.224-.672.448-.672,1.229-.672a1.314,1.314,0,0,1,1.234.9h-1.119l-.759-.027m.644-46.873-.9-.224-1.452-1.791,1.229.109m-2.375-1.616.175.366-.033.36-.224.109a.924.924,0,0,1-.786-1.119l.224-.109.344.115.3.278m-.868,1.731,1.234-.224,1.338,1.676-1.114.115m-1.567.333-1.458-1.343.9-.448,1.458,1.567m-3.587-.448.672-.448,1.349,1.458-.677.339M322.677,8.5l.491-.1a1.461,1.461,0,0,1,1.458,1.234,1.37,1.37,0,0,1-1.458,1.229,1.266,1.266,0,0,1-1.343-1.229,1.185,1.185,0,0,1,.42-.868l.431-.268m.683,22.115,1.2-.737a7.183,7.183,0,0,0,1.753-2.113,9.558,9.558,0,0,0-1.234,1.01,11.343,11.343,0,0,1-3.249,1.791l-.109-.557.224-.786c1.567-.786,2.687-3.467,3.473-3.358h.224c1.343,1.01,2.681,2.124,3.02,3.806.672-1.343,2.015-1.682,2.463-3.244a23.23,23.23,0,0,0,1.01-4.816l1.562-2.239.224,6.269V26.2l-1.447,2.217a21.731,21.731,0,0,1-5.6,5.837c-1.119.672-2.8,1.682-4.145,1.682-.448,0-1-.115-1-.672a1.647,1.647,0,0,1,.448-.9c3.134-.339,4.592-1.343,5.821-4.139-1.119,1.676-3.806,3.577-5.821,3.577h-.115v-.224a1.362,1.362,0,0,1,.339-1c2.353-.224,4.254-.781,5.149-3.02-.672,1.343-4.03,2.348-5.488,2.687a.752.752,0,0,1-.448-.562,1.133,1.133,0,0,1,.448-.781l1.31-.289m-1.2-16.169-1.119-1.234.448-.448L322.836,14m-.448-5.93-.268.349-.519.1c-.218,0-.781-.115-.781-.448s.562-.453.781-.453l.519.1.268.355m-1.791,5.6,1.229,1.229c-.333.224-.557.562-.89.672l-.9-1.343.557-.557m-.109-3.358.868.251a.917.917,0,0,1,.36.754,1.137,1.137,0,0,1-1.229,1,1.1,1.1,0,0,1-1.119-1,.924.924,0,0,1,.349-.754l.77-.251m-.115,5.821-.9.557-.557-1.791a.755.755,0,0,0,.557-.333l.9,1.567m-1.567,42.308.087-.77-.087-.683c1.343,1.229,2.687,2.348,4.7,2.348,1.01,0,2.687-.333,2.687-1.791a2.135,2.135,0,0,0-.448-1.343c1.01,0,2.239.448,2.239,1.682,0,2.015-2.348,2.91-4.03,2.91a5.994,5.994,0,0,1-3.964-1.42l-1.185-.934m.448-45.934.246.24.093.36a1.018,1.018,0,0,1-2.02,0c0-.562.562-.786,1.01-.786l.672.186m-.333,4.407-.786.448-.672-1.791.781-.333m-.672-7.164.628.087c.65.164,1.278.584,1.278,1.256,0,.9-1.119,1.338-1.906,1.338-.672,0-1.786-.442-1.786-1.338a1.368,1.368,0,0,1,1.223-1.272l.562-.071m0,9.4-1.229.109-.557-1.791,1.114-.224m.448-1.229-.076.355a.872.872,0,0,1-.819.426.759.759,0,0,1-.781-.781c0-.339.448-.672.781-.672l.617.207.278.464m-.377,38.535-1.3-.366a1.367,1.367,0,0,1,2.687.333v.224l-1.387-.191M315.42,8.038l-.306-.311c0-.339.557-.562.781-.562s.672.224.672.562c0,.224-.448.448-.672.448l-.475-.137m-.306,45.022,1.562.366,1.567.2c.562,0,1.349-.115,1.349-.786a4.241,4.241,0,0,0-.448-1.452.757.757,0,0,0,.448-.786,2.368,2.368,0,0,0-.339-1.338h-.781l.257-1.037c.808-2.108,2.976-2.157,5.226-2.55l1.343-.333c.562,2.8.115,8.169,1.458,10.522h-.339a4.236,4.236,0,0,0-1.676.224c.672.224,1.229.557,1.229,1.229,0,1.119-1.676,1.458-2.463,1.458-2.239,0-3.467-1.567-5.035-2.91a4.427,4.427,0,0,0-2.8-2.463l-.557-.339m.109-32.8L315,20.155l.224-.224.339.224m-1.234,40.069.983-.5a1.1,1.1,0,0,0,.475-.841,1.027,1.027,0,0,0-.448-.9,2.053,2.053,0,0,0,1.452-2.124,2.594,2.594,0,0,0-.448-1.567,4.145,4.145,0,0,1,2.015,3.582c0,1.594-1.327,2.053-2.692,2.233l-1.338.115m1.343-42.532h-1.119l-.448-1.567,1.01-.224m-1.234,4.254.251-.393a4.168,4.168,0,0,1,1.54-.393l-1.791.786M315,10.3v.333c-.109.672.672,1.229,1.343,1.229a2,2,0,0,0,1-.448c.115.9-1,1.567-1.786,1.567s-1.791-.557-1.791-1.343a1.277,1.277,0,0,1,.36-.879L315,10.3m-.224,4.811-.251.349-.42.1c-.333,0-.781-.109-.781-.448s.448-.557.781-.557l.42.153.251.4m.147-6.531.076.377a.863.863,0,0,1-.9.781c-.448,0-1-.333-1-.781a.976.976,0,0,1,1-.9l.617.24.2.278m.3,12.352.491-.224.071-.557c.666-.224,1.229-.672,1.114-1.343V18.7c-.333.562-1.114.339-1.676.339-.9,0-2.124.672-2.124,1.791l.333-.224.562.224.448-.115.781.224m-1.676-4.7.333,1.567-1,.115-.453-1.573m0,20.723-.109-.683.562,1.119m-.677,13.99.229-.42a1.5,1.5,0,0,1,1.229-.475A1.185,1.185,0,0,1,315,51.94v.448l-2.8-.9m-.224-4.811.5-1.141c2.823-5.351,9.894-5.488,9.687-9.157l.9.109c1.567,0,3.806-1.343,4.925-2.239a19.5,19.5,0,0,0,5.93-7.945,59.579,59.579,0,0,1-2.681,17.13,17.561,17.561,0,0,1,8.278-1.906h.9l1.906.109-.448,1.906-2.353-.109-4.363-.672-.115-.448v.557c0,.786-1,2.91-2.124,3.02l-.115.224a5.5,5.5,0,0,1-2.009.9,11.552,11.552,0,0,0,1.9-.333l-.109,1-2.015.672,2.015-.224-.115.672a4.07,4.07,0,0,1-1.791.786l1.906-.109v.557a8.522,8.522,0,0,1-1.906.781l1.906-.224v.562a3.751,3.751,0,0,1-1.906.9h.339a4.482,4.482,0,0,0,1.676-.339l.109.448a4.636,4.636,0,0,1-2.124,1.01,5.041,5.041,0,0,0,2.239-.448,18.247,18.247,0,0,0,1,2.13c-1.119,1.676-3.8,2.009-5.6,2.009a1.716,1.716,0,0,0-1.452-1c-1.343-3.921-.109-8.174-1.567-12.537a20.5,20.5,0,0,1-1.343-4.925v.333a18.83,18.83,0,0,0,1.01,5.488l-.224.109a2.633,2.633,0,0,1-.786-1.562v.224a2.93,2.93,0,0,0,.562,1.9l-.448.333a3.191,3.191,0,0,1-1.234-2.233v.557a3.481,3.481,0,0,0,.672,1.791h-.448l-.622-.431a2.84,2.84,0,0,1-.945-2.031v.339a3.224,3.224,0,0,0,.781,2.233,4.664,4.664,0,0,0-2.124.562,2.733,2.733,0,0,1-1.343-2.348l-.109.448a3.2,3.2,0,0,0,1,2.124l-.333.224c-1.01-.224-1.458-1.458-1.682-2.348a3.389,3.389,0,0,0,1.234,2.681,3.732,3.732,0,0,0-.677,2.468,11.284,11.284,0,0,1-4.991-1.4l-1.278-1.174m-.169-36.771.617-.169a.672.672,0,1,1,0,1.343c-.448,0-.9-.224-.9-.672l.279-.5m.169,5.095.349.153.1.4c0,.115-.109.339-.448.339a.5.5,0,0,1-.448-.339l.142-.4.306-.153m.448-2.577-.109.333c0,.786.672,1.01,1.343,1.01l.672-.109c-.109.672-.9.9-1.452.9s-1.573-.224-1.573-1.01a.917.917,0,0,1,.349-.688l.77-.431m-.393,35.16.8.606a10.656,10.656,0,0,0,6.094,1.622l.109.672c0,.448-.224.448-.672.448-2.015,0-6.716-1.343-7.279-3.473,0-.224.115-.557.339-.557l.612.683m-.279-31.13.448,1.567-1.119.224-.333-1.458m1-4.811-.169.4-.5.153c-.224,0-.672-.224-.672-.557s.448-.562.672-.562l.5.153.169.41m-1.857,3.68.4-.1a.411.411,0,0,1,.448.448.482.482,0,0,1-.448.448.511.511,0,0,1-.557-.448l.153-.349m-.268,14.9h-.109l.333-.109m-.333,19.363.42-.59.584-.42a1.71,1.71,0,0,1,1.119,1.458l-.224.9-1.037-.59-.863-.754m.448-37.055.306.142.137.306a.409.409,0,0,1-.442.453c-.224,0-.562-.115-.562-.453l.2-.306.366-.142m-.224,6.946-.339-.224a.361.361,0,0,1,.339-.339c.109,0,.224.115.224.339l-.224.224m.333-2.8.333,1.458-.89.333-.339-1.343m-.1-3.233.1.213c0,.333-.109.557-.448.557a.511.511,0,0,1-.448-.557.5.5,0,0,1,.448-.339l.349.126m-.055,2.1.153.344c0,.339-.224.453-.557.453a.413.413,0,0,1-.448-.453.407.407,0,0,1,.448-.442l.4.1m-.071,2.7-.781.339-.339-1.234.672-.448m-1-2.348.4.082.153.251a.529.529,0,0,1-.557.562.517.517,0,0,1-.453-.562l.142-.251.311-.082m-.033,5.116.142.257c0,.224-.224.224-.448.224-.115,0-.224,0-.224-.224s.109-.339.224-.339l.306.082m.142-.754-.546.24-.464.322-.109-1.343.786-.562m.109-.781-.142.306-.306.142a.513.513,0,0,1-.562-.448.53.53,0,0,1,.562-.562l.306.153.142.41m-1.682,3.358-.333-.339c.109-.557.109-.9.557-1.119l.115,1.119-.339.339m-.546,34.685.213-.546.672-.333a11.955,11.955,0,0,1,5.821-1.906c1.791,0,4.363.672,4.363,2.91a2,2,0,0,1-2.009,2.015,6.038,6.038,0,0,1-1.8-.448,1.808,1.808,0,0,0,1.682-1.682c0-1.343-1.567-1.567-2.577-1.567a9.875,9.875,0,0,0-5.482,1.682l-1.119.672-.224-.339.459-.459m-.126-32.676-.89-.109a4.2,4.2,0,0,1,1-1.567l-.115,1.676m-.224,4.7-1.229-.109a37.744,37.744,0,0,0,1.567-3.806l.333.109a.519.519,0,0,0,.562-.333V22.055l-.339-1.119.339-.109.781-.562-.109.562c0,.333.448.672.786.672a.731.731,0,0,0,.109-1.458l1.791-.781-.109.224a.744.744,0,0,0,.672.781c.442,0,.666-.333.666-.781l-.442-.562c3.02-.9,6.6-.448,8.955-1.567,3.577-1.676,3.02-3.921,8.169-4.368l.109.339a.519.519,0,0,1-.333.562,8.772,8.772,0,0,1,2.463-.224,3.9,3.9,0,0,1,3.806,3.691l-.115,1.234a2.823,2.823,0,0,0-1.453-1.119c-.109-1.458-1-3.249-2.687-3.249-3.244,0-1.234,3.473-3.915,5.488.9-.224,1.567-1.682,1.791-2.577a2.609,2.609,0,0,1,1.676,1.567,2.651,2.651,0,0,0-1.458-2.239l.224-.557a7.176,7.176,0,0,1,1.906,1.791,7.914,7.914,0,0,0-1.343-2.239l.557-.339A5.629,5.629,0,0,1,330,16.906a9.431,9.431,0,0,0-.786-1.9s2.244,1.338,2.244,2.8a1.677,1.677,0,0,1,1.562,1.119,5.959,5.959,0,0,1-1.452,2.463V21.5a18.6,18.6,0,0,1-.9,4.478c-.448,1.343-1.567,2.124-1.906,3.353-1.119-4.472-4.7-3.244-4.7-8.169a8.5,8.5,0,0,1,.333-2.348,7.753,7.753,0,0,0-.9,3.129,4.9,4.9,0,0,0,.786,2.468,5.489,5.489,0,0,1-1.234,3.129l.109-.89v-.562l-.448,1.9c-.333.224-.557.562-1,.677l.333-1.343-.781,1.562-.672.339.224-1.234a3.294,3.294,0,0,1-.672,1.234l-.557.109.109-.781V28.1a2.284,2.284,0,0,1-.448,1.229l-.672.115.224-1.343-.562,1.343-.557-.115.333-1.343-.672,1.343-.672-.109a5.657,5.657,0,0,0,.339-1.458,3.533,3.533,0,0,1-.672,1.458h-.9a5.368,5.368,0,0,0,.557-1.9,3.489,3.489,0,0,1-1,1.9h-.333c-1.567,0-2.916,1.234-3.811,2.13,0-.786,2.244-3.025,2.244-5.373l-.115-.672a15.669,15.669,0,0,1-6.94,2.124l-1.234.109m-2.124,2.02,1.676.475,1.682.306,3.134.224v.224l-1.452,1.906a2.487,2.487,0,0,1-1.234-.562,2.255,2.255,0,0,0,1.01.786l-.339.557a1.887,1.887,0,0,1-1.119-.339l.9.672-.339.448-.557-.224-.672-.224.672.448.448.224-.224.672h-.224a1.473,1.473,0,0,1-1.119-.333,2.352,2.352,0,0,0,1.119.672h.109l-.109.557v-.333l-.115.448a2,2,0,0,1-1.119-.448,2.568,2.568,0,0,0,1.119.781v.339a2.634,2.634,0,0,1-1.338,0,2.2,2.2,0,0,0,1.229.224V37.5l.109.9a3.857,3.857,0,0,1-1.229.333h.448a.975.975,0,0,0,.781-.109l.115.224.224.333-.9.9c.224-.109.557-.224.672-.448l.448-.224.557.224a2.465,2.465,0,0,1-.781,1.01,2,2,0,0,0,1.01-.9l.448.109,1-.224a.752.752,0,0,1,.448.562l-.109-.672.224-.115.448.448-.224-.672.224-.109.224.557-.115-.557,1.229-1a.614.614,0,0,0,.339.448l-.339-.786c0-.333.224-1.791.562-1.906l.333.339c.115,1.119.672,2.015,1.906,2.015.224,0,1.01,0,1.01.224-.115,1.229-3.14,1.9-4.145,2.124h.9a5.523,5.523,0,0,1-4.478,2.577l-1.119-.224c-3.467-.786-4.478-4.145-4.478-7.5l.35-2.949.77-2.867m-.306-1.889,1.185.295,1.36.137h1.119a17.241,17.241,0,0,0,5.706-1.452l.339.781c0,.9-1.01,1.791-1.343,2.463h-.781l-.224-.562v.562h-.672l-.224-.672-.115.672h-1.119l-.224-.672-.109.672H306.6l-.224-.786v.677h-.333l-.562-.115a1.353,1.353,0,0,1-.224-.9,1.265,1.265,0,0,0,0,.9l-.666-.224a1.278,1.278,0,0,1-.339-.9.962.962,0,0,0,0,.781c-.781-.109-3.582-1.229-3.7-2.009l.841.071.983.278m.743,29.356.459-.371.224-.459a15.047,15.047,0,0,1-4.925,1.682h.448a11.472,11.472,0,0,0,2.446-.339l1.349-.513m-1.387,1.409-1.065.115a7.033,7.033,0,0,1-3.358-.786,9.156,9.156,0,0,0,6.716-4.254,1.876,1.876,0,0,1,1,1.458,1.394,1.394,0,0,1-.442.9c-.115-.224-.448-.339-.672-.448a1.236,1.236,0,0,1,.557,1.119c0,.726-.672,1.229-1.485,1.551l-1.256.349m.617-5.93L301,54.043c-1.1,1.272-1.736,1.818-4.248,2.49l.333.109a7.02,7.02,0,0,0,5.078-3.413l.186-.726m-6.269,5.149V57.09a3.748,3.748,0,0,0,.672-1.119c2.572-.448,5.035-4.254,4.7-6.711.453.333,1.349,1.562,1.234,2.233a5.613,5.613,0,0,0,1.906-1.119c0,2.13-2.015,4.816-3.921,5.712l-2.255.868-2.332.7m.557-18.025-1.431.8-1.256.885a1.886,1.886,0,0,0-.448-1.234,7.917,7.917,0,0,1,2.239-.448h.9m-.928-2.37-.917.775a5.561,5.561,0,0,0-1.289,1.933l-.672-.786a17.08,17.08,0,0,1,2.015-2.009,12.18,12.18,0,0,0-2.239,1.786l.448-1.229a5.021,5.021,0,0,1,3.025-1.119h.672l-1.043.65m-.213-5.226-1.278,2.141a40.1,40.1,0,0,0-1.944,4.56l-.562-.333a28.611,28.611,0,0,1,1.567-3.7,21.044,21.044,0,0,0-1.9,3.473l-.562-.224,1.458-3.806s2.8-3.582,4.811-4.03L295.5,32.031m-5.466,10.288.48.6.644.519.448-.448-.83-.257m-1.19-2.321,1.458.448-.448.448m-1.119-23.284.109-.333.562.333m-.027,25.309-.644-.459c.109.448.672.786,1.119,1.119l.339-.448-.814-.213m-.644,3.457,1.458-1.567a13.124,13.124,0,0,1,3.02-.333,4.727,4.727,0,0,1,2.8.672h-.448a8.514,8.514,0,0,0-5.373,1.9l-.732-.415-.726-.257m-.224,10.189.224-1.234a6.26,6.26,0,0,0,2.577.786c1.9,0,2.9-1.676,3.691-3.134a3.007,3.007,0,0,1,.339,1.682,2.235,2.235,0,0,1-.786,1.786,2.557,2.557,0,0,1,.333,1.234l-.109.977-.349.633-.142-.775a2.994,2.994,0,0,0-2.141-1.354l-3.637-.6m1.78-18.315,1.13.683a2.854,2.854,0,0,1,1.234,1.96.863.863,0,0,1-.9.781,3.182,3.182,0,0,1-1.343-.448l1.229-1.452h-.672a2.567,2.567,0,0,1-2.577-1.343c.115-.448.448-.448.786-.448l1.108.268m-1-18.735-.6-.087-.519-.251.115-.333a1.558,1.558,0,0,1,1.682-.448l.333-.562-.786-1a2.577,2.577,0,0,1,1.349-.677,2.772,2.772,0,0,1,.448,1.349,2.008,2.008,0,0,1-1.229,1.857l-.792.158m-1.119,13.875V30.115a49.352,49.352,0,0,1,5.04-8.393,57.625,57.625,0,0,0-5.04,7.383V26.98c1.906-3.02,4.7-7.05,8.174-8.284a47.131,47.131,0,0,0-6.722,10.894l-1.453,4.216m0,3.364V35.264c0-.786,2.577-5.373,3.025-6.159,1.343-2.124,3.134-4.472,5.488-5.482a61.587,61.587,0,0,0-6.94,14.219l-.453-.115-.9.224a80.386,80.386,0,0,1,5.04-10.3l-2.758,4.674-2.506,4.843m1.343,7.05-1.343-.672,1.01,1.119m-1.038-28.291,1.147-.475-.448-.562a2.573,2.573,0,0,0-1.343,2.015l.246-.573.4-.4m-.644,27.734.437.6.683.513.448-.448-.825-.289m.377-29.372-.448-.557a2.856,2.856,0,0,0-1.338,2.009,1.763,1.763,0,0,1,.639-.934l1.147-.519m-.672-.781-.333-.562a2.494,2.494,0,0,0-1.343,2.015,1.4,1.4,0,0,1,.59-.934l1.087-.519m-1.72-.224,1.048-.562-.333-.448a2.572,2.572,0,0,0-1.343,1.906l.628-.9m.382-1.349-.339-.448a2.574,2.574,0,0,0-1.343,2.02,2.072,2.072,0,0,1,.628-.994l1.054-.579m-.562-.781-.448-.339A2.245,2.245,0,0,0,285,13.548a1.826,1.826,0,0,1,.644-.95l1.147-.617m-2.015,39.851-.317-.759a2.153,2.153,0,0,0-1.813-1.365l-.333.109c.082.251,1.048.754,1.807,1.371l.655.644m-.562-10.288-.655.5-.464.612-1.229.115a7.88,7.88,0,0,0,1.452-1.906l1.119-.224,1.234.224-1.458.683m-2.239,9.785.693.513.65.661c-.109-.672-.781-2.015-1.562-2.015h-.786l1,.841m-2.124-19.423.966-.142,1.048.033a.971.971,0,0,0,.781,0l.115.224-2.91-.115m2.015-20.6-.224-.224-2.348,1.791.224.224m-.562,32.239,1.327-.983,1.25-1.141,1.562-.115a5.249,5.249,0,0,1,3.811,1.229l-1.682-.218a13.438,13.438,0,0,0-3.178.448l-3.091.781M281.5,8.808l-.306-.186c-.333,0-2.687,2.91-2.91,3.02l.109.224c.224-.224,3.249-2.348,3.249-2.8l-.142-.262m-3.779,43.356h-.109c0,.448,1,.786,1.343,1.01l.9,1a2.277,2.277,0,0,0-1.371-1.889l-.759-.126m.786-30.557.333-1.076a1.114,1.114,0,0,1,1.01-.491l.448.115a3.7,3.7,0,0,0-.9,2.233,2.337,2.337,0,0,0-1.791,1.234,1.278,1.278,0,0,1-.339-.9.866.866,0,0,1,.448-.726l.786-.393m-1.234,12.313.115-.224.557.109a1.248,1.248,0,0,0,1.119-1.338c.115-.224.339-.224.677-.224h3.02v.89l-1.791.115,1.676.333v.339h-5.373M278.955,8.4l-.339-.109-1.676,1.9.333.224m.672,10.189-.169.513-.5.268c-.333,0-.666-.448-.666-.781a.749.749,0,0,1,.666-.786l.5.224.169.562m.339,34.139-.224-.693a2.21,2.21,0,0,0-1.791-1.321h-.333l1,.835,1.343,1.179m1.682-51.378-.087-.268-.251-.18c-.448,0-3.806,6.154-4.03,6.493l.224.109,2.113-3.074,2.031-3.08m-5.712,32.9.115-.333a5.985,5.985,0,0,0,2.572-1.682h5.706l-.224.9-1.9.224,1.9.224-.218.672h-7.951m1.234-30-.224-.224L274.03,8.4l.448.224m4.166,50.144,1.545-.218a6.211,6.211,0,0,0-3.14-.786l-1.786.115c.109,1.229-1.119,2.015-2.02,2.572l3.517-1.163,1.884-.519m-3.271-14.885-1.676.229,1.119.109-1.01.448a5.267,5.267,0,0,0-.786-1.343h3.7l-1.343.557M272.687,8.065V7.95l1.234-2.8c0-.333-.339-.442-.562-.442-.339,0-.672,1.786-.672,2.009l-.339,1.234.339.115M272.015,38.4v-.781c.109-.339.224-.562.672-.562l.224.115c.224-.786,1.119-.339,1.234-.677h7.945l-.224.562-2.015.339,1.906.224-.448.781h-9.294m-.115,9.064h-.109a1.837,1.837,0,0,0,.224-1.119l-.115-.672.786-.109a13.4,13.4,0,0,0,10.632-12.87c0-2.353-1.562-8.507-4.7-8.507l-.672.224a2.157,2.157,0,0,1,2.02-1.573c0-1.338.224-2.348,1.791-2.9l-.115.9c0,4.03,3.358,5.821,3.358,11.866,0,7.5-5.149,13.2-12.313,14.661l-.786.109m9.294-8.841-.448.781-2.13.224,1.8.224-.562.786h-8.06l-.115-.339c0-.224.448-.448.448-1v-.672h9.07m-8.846,15.251-.344-.5-.552-.2a5.071,5.071,0,0,1,.9,3.358,3.307,3.307,0,0,0,.224-1.452l-.224-1.207m-.672-8.759-.333-.339.333-1,.448-.781.562.557a2.256,2.256,0,0,1,.672,1.229l-.672.115-1.01.224M271.343,5.04H270.9L270.672,7.5l.339.109m.442,38.731-.349.994a1.059,1.059,0,0,1-.764.573c-.224,0-.224-.224-.339-.333a2.477,2.477,0,0,0,.562-1.343,2.89,2.89,0,0,0-.448-1.119h.333a.91.91,0,0,1,.754.4l.251.825M269.776,0l-.349.153-.1.41.224,7.164H270l.115-7.055-.044-.459M270.016,24.1l.1.2c0,.224-.115.339-.562.339a.3.3,0,0,1-.333-.339c0-.224.224-.224.448-.224l.35.027M269.8,54.07l-.251-.786a3.973,3.973,0,0,0-.333,1.573,15.2,15.2,0,0,0,.333,2.348,14.547,14.547,0,0,0,.339-2.348l-.087-.786m.377-29.23.268.349c-.109.339-.333.339-.9.339-.672,0-.781-.224-.672-.448.115-.339.339-.339.786-.339l.513.1m-.53,22.388-.36.4-.41.169-.448-.224a1.682,1.682,0,0,0,.448-1.234l-.109-.781c0-.224.224-.339.448-.339.448,0,.781.672.781,1.01l-.349.994M268.1,26.085l.317-.289a6.6,6.6,0,0,1,1.807-.044c.339,0,.786.109.9.333,0,.448-.109.448-.448.448a7.563,7.563,0,0,1-2.2-.142l-.371-.306m0-21.045h-.453l.453,2.572.333-.109m1.119,19.254,1.567-.109a.828.828,0,0,1,.672.672.592.592,0,0,1-.672.666H268.1c-.339,0-.562,0-.562-.557,0-.448.224-.781.672-.781l1.343.109m-1.343,18.358-1.234-.224h1.682m-2.13,10.189.224,1.452v-.115a4.587,4.587,0,0,1,.786-3.244c-.393,0-.644.306-.8.7l-.208,1.207m.442-26.467.9-.4a18.526,18.526,0,0,0,3.582,0,1.854,1.854,0,0,1,1.234.786,2.8,2.8,0,0,1,.333,1.458l-.333,1.791a8.556,8.556,0,0,1-1.676,2.233c-.9,1.119-.9,3.249-1.567,3.811a2.565,2.565,0,0,1-.339-1.234c0-2.239,1.682-3.358,1.682-4.811,0-.224,0-.786-.339-.786a.3.3,0,0,0-.333.339l.109.781c0,1.452-1.9,3.134-1.343,5.712a2.108,2.108,0,0,1-.781-1.234c-.339-.9-.229-2.13-.677-2.8-.781-1.119-1.676-2.124-1.676-3.353a2.6,2.6,0,0,1,.557-1.726l.666-.562m-.4-.1-.726.6a3.121,3.121,0,0,0-.546,2.015c0,2.233,1.676,2.681,2.015,4.248.224,1.01.448,2.692,1.567,3.025l.448.557c1.343-.89,1.234-2.91,2.687-4.478l.672-1a4.545,4.545,0,0,0,.672-2.8,3.043,3.043,0,0,0-.672-2.13,2.714,2.714,0,0,0-1.01-.448.874.874,0,0,0,.339-.781c0-.448-.448-.672-.786-.786l.115-.448c0-.333-.557-.557-.9-.557l.224-.339a.482.482,0,0,0-.448-.448l.115-.333a.754.754,0,0,0-.786-.677c-.448,0-.781.339-.557,1.01-.224,0-.339.224-.339.448l.115.339c-.339.109-.672.109-.786.448v.109l.115.448c-.562.115-.786.339-.786.9a.68.68,0,0,0,.333.672l-1.076.41m-.279-22.262-.36-1.065-.41-.475c-.224,0-.333.224-.333.442l1.229,2.916.224-.115-.349-1.7m-2.561-.2-.224.224,1.01,2.353.333-.224m.055,10.446,1.5-.415a15.882,15.882,0,0,1,3.151-.289,28.559,28.559,0,0,1,3.134,0,12.559,12.559,0,0,1,3.921,1.343,1.373,1.373,0,0,0-.562,1.119l.115.557a9.517,9.517,0,0,0-3.473-1l-3.134-.339a11.8,11.8,0,0,0-5.6,1.343l.115-.557a1.373,1.373,0,0,0-.562-1.119l1.4-.639m-.612,24.927-.786-.448h4.925a.948.948,0,0,0,.786.224c.9,0,.109-1,1.567-.781,0-1.8,1.229-.339,1.114-1.8h7.617l-.677.672-2.233.224,1.786.339-1.229.786h-4.478v-.115l-.786-.557-1,2.233c-1.452.115-3.249,0-4.7,0l-.9-.333,1.229-.109-2.233-.339M263.507,20.6l-.207.513-.464.268a.739.739,0,0,1-.672-.781c0-.448.224-.786.672-.786l.464.224.207.562m-2.353-6.159,1.567-2.015a9.51,9.51,0,0,1,6.831-3.02,9.8,9.8,0,0,1,3.134.557,10.7,10.7,0,0,1,5.258,4.925,38.746,38.746,0,0,1-5.258.672h-3.134a30.688,30.688,0,0,1-6.345-.568l-2.053-.552m1.01,39.119,1.01-.835h-.339a2.369,2.369,0,0,0-2.015,2.015l1.343-1.179m-.786-11.92-.431-.289-.349-.382h6.378c.115.224.562.672.562,1.01a.977.977,0,0,0,.562,1.01h-5.149l-1.125-.786,1.573-.224-2.02-.339m-1-33.353-.339.109,1.682,2.015.333-.224m-.557,11.418.939.393a.854.854,0,0,1,.519.726,1.388,1.388,0,0,1-.448.9,2.355,2.355,0,0,0-1.8-1.234,3.667,3.667,0,0,0-.89-2.233l.442-.115a1.107,1.107,0,0,1,1.185.994l.049.573m0,30.557h-.115a2.292,2.292,0,0,0-2.233,2.015c.333-.333.557-.781,1-1l1.179-.693.164-.317m-.027-46.13-1.311-2.151-.786-.967a.6.6,0,0,0-.339.448c0,.333,3.806,5.6,4.145,6.154l.224-.109-1.933-3.375m4.166,32.588.224.448v.224l-.224.109,1.234,1.234h-6.493l-.672-.786,1.791-.224-2.124-.224c-.115-.333-.339-.448-.339-.781h6.6m-3.244,20.663,3.467,1.163c-.89-.557-2.124-1.343-2.009-2.572l-1.8-.115a5.893,5.893,0,0,0-3.129.786l1.556.218,1.911.519M265.1,37.448l.42.95h-6.716l-.448-.781,1.676-.224-1.786-.339-.224-.562h6.493m-6.831-6.935.562-1.371c.7-1.556,1.818-3.446,3.244-3.446.557,0,.9.448,1.458.672l-.224-1.229a1.753,1.753,0,0,0,.781-1.458l-.224-.562a11.351,11.351,0,0,1,6.269-1.786l3.134.333a13.77,13.77,0,0,1,4.139,1.343l-.218.672a1.753,1.753,0,0,0,.781,1.458l-.115,1.229c.448-.224.786-.672,1.343-.672,2.354,0,3.806,4.816,4.03,6.607l-.224.109a.748.748,0,0,1-.666-.448v.448l-1.119.115-.672-.115-.339.448H279.4a1.021,1.021,0,0,0-.9.448l.109.224a.974.974,0,0,1-.672.781l-.557-.109-1.343,1.229a8.23,8.23,0,0,1-1.9,1.119c-.224.115-.224.339-.339.672-.448.115-.9.115-1.119.453-.672-.115-.9.333-1.234.9a4.068,4.068,0,0,1,.339,1.676c0,.333-.448.448-.448,1v1.01l-.672.295a.968.968,0,0,0-.333.715c-.9,0-.672.333-1.01.781l-.109.115a1.645,1.645,0,0,1-.786-.339,1.021,1.021,0,0,1-.448-.9c0-.672-1.234-2.13-1.791-2.577l.109-.333c0-.672-1.114-2.124-1.453-2.687v-.448c0-.786-.557-1.682-.557-2.577,0-.224.333-.333.448-.442-.339-.448-.339-1.682-.672-1.682s-.339.562-.448.672c0,.448-.672.562-1.01.562a1.932,1.932,0,0,1-1.682-1.01c.448,0,1.234,0,1.234-.557a.3.3,0,0,0-.339-.339l-.672.224a.946.946,0,0,1-.557-.333c-.781-.786-1-.339-1.567-.672l-.109.109h-.339l-.9-.333m0,.672v-.224l.562.224m5.93,4.139.339,1.567v.448H257.91l-.224-.786,1.906-.333-2.015-.224-.115-.672m.224-25.746-.109.115-.224.333c0,.448,3.02,2.572,3.244,2.8l.224-.224-1.485-1.551-.972-.977-.677-.491m-.333,24.4v-.557h3.577v-.224h-3.577l.109-.562,2.015-.333-2.015-.115.115-.672h2.572l.448.448h-.224c.448,1.119,1,1.906,2.239,1.906a1.745,1.745,0,0,0,1.343-.672l.224.557-.224.557.115.672h-6.607l-.109-.557,1.791-.339-1.791-.109M259.478,13.1l.224-.224-2.348-1.791-.224.224m1,39.179h-.781c-.786,0-1.573,1.343-1.573,2.015l.59-.661,1.764-1.354m-.672-25.855.519-1.13a6.346,6.346,0,0,0,.377-3.571,2.66,2.66,0,0,1,1.791,2.9,2.4,2.4,0,0,1,2.124,1.573l-.781-.224c-3.134,0-4.7,6.154-4.7,8.507A13.419,13.419,0,0,0,268.1,45.672l.224.672a3.208,3.208,0,0,1-.339,1.119C260.6,46.234,255,40.3,255,32.692a12.973,12.973,0,0,1,1.365-6.127l1.1-1.933m-.912,17.408-.655-.5-1.458-.683,1.119-.224,1.234.224a7.9,7.9,0,0,0,1.458,1.906l-1.234-.115-.464-.612m.24,7.776-.339-.109c-1.119,0-1.791,1.114-2.015,2.124a4.925,4.925,0,0,1,1.305-1.218l1.048-.8M254.705,12.6l.382.42.246.53A2.471,2.471,0,0,0,254,11.642l-.339.339,1.048.617m-1.5,31.731.83-.617a6.271,6.271,0,0,1,2.976-.612l1.567.115a15.63,15.63,0,0,0,2.572,2.124c-2.009-.448-4.139-1.229-6.269-1.229l-1.676.218m.825-30.988.382.448.246.546a2.855,2.855,0,0,0-1.338-2.02l-.339.448,1.048.579M254,15.005l-.115-.568a3.281,3.281,0,0,0-1.229-1.338l-.339.448,1.048.562.633.9m.89,29.438,3.779.617,3.609.95a20.564,20.564,0,0,0,5.712,2.015l.9.333.672-.224.786.339c.448,0,.672-.339,1-.448h.672l.672-.115a29.5,29.5,0,0,0,5.258-1.9,36.38,36.38,0,0,1,7.279-1.567,4.479,4.479,0,0,1,2.687.781,4.477,4.477,0,0,0-4.254-2.457c.448-1.01,1.906-1.573,2.8-1.8a2.519,2.519,0,0,0-1.906-.672h-.9a14.869,14.869,0,0,0,2.015-7.606c0-3.364-.9-5.488-2.577-8.4a7.3,7.3,0,0,1-.89-3.467l.218-1.791-1.562.672a1.672,1.672,0,0,0-1.01-.224c-.557,0-1.119.109-1.343.672-.562-1.343-4.587-2.353-5.821-2.577a29.985,29.985,0,0,0-3.134,0c-2.13,0-5.149.224-6.826,1.682a1.475,1.475,0,0,0-1.125.9,1.589,1.589,0,0,0-1.343-.672,1.664,1.664,0,0,0-1,.224l-1.567-.672.224,1.791a7.246,7.246,0,0,1-.9,3.467,15.116,15.116,0,0,0-2.577,8.4,14.869,14.869,0,0,0,2.015,7.606h-.9a2.755,2.755,0,0,0-2.009.672c1,.224,2.457.786,2.9,1.8a4.755,4.755,0,0,0-4.363,2.457l1.4-.557,1.4-.224m-2.141-29.59.426.41.262.524a2.916,2.916,0,0,0-1.452-2.015l-.339.562,1.1.519m-.628.781.393.41.251.524a2.572,2.572,0,0,0-1.343-2.009l-.448.557,1.147.519M252.2,44.11l-.8.377-.879.289.448.448.7-.513m.42-27.357-.115-.628a3.122,3.122,0,0,0-1.229-1.387l-.448.562a2.536,2.536,0,0,1,1.54.928l.251.524m-1.906.672.448-.333.224.333m-.175,31.1.6-.246,1.261-.18.786-.562-.786-.109a2.836,2.836,0,0,0-2.353,1.458l.5-.36m-.273-4.456,1.01-1.119a4.356,4.356,0,0,1-1.458.672l.448.448m-.672-3.358-.448-.448,1.343-.448m.339,2.463-.759.459-.923.213.562.448m.448-1.676-.743.415-.825.257.557.448M250.73,18.91l.579.349v.333l-.47.251-.541.087a1.912,1.912,0,0,1-1.9-2.015,2.686,2.686,0,0,1,.333-1.349,2.58,2.58,0,0,1,1.343.677l-.786,1,.339.562h.448l.655.1M247.5,42.652h.333c1.567,0,4.254-2.015,3.921-3.806h.109V19.592a3.688,3.688,0,0,0-2.687-3.467,39.375,39.375,0,0,1,4.03-4.483l.672-.224a2.764,2.764,0,0,1,1.791.9c3.473,3.364,10.632,3.921,15.115,3.921l1.9-.109c3.582-.224,9.179-1.119,11.975-3.811a2.524,2.524,0,0,1,1.682-.9l.672.224a53.562,53.562,0,0,1,4.145,4.483,3.792,3.792,0,0,0-2.8,3.467V35.712l.109,3.358a4.925,4.925,0,0,0,4.035,3.582l-3.249,4.139a5.9,5.9,0,0,0-2.348-.448c-4.483,0-8.737,4.368-14.219,5.04l-2.91.109c-7.049,0-11.194-5.035-16.343-5.035l-2.015.224-3.915-4.03m2.9-4.254.475.055.311.393c-.672,1.343-1.906,1.452-3.244,1.343a7.067,7.067,0,0,0,1.229,1.452,3.182,3.182,0,0,1-1.343.448.8.8,0,0,1-.9-.781c0-1,1.2-2.141,2.359-2.643l1.108-.268m-4.363,12.985.666-1.032a10.847,10.847,0,0,1,7.841-3.56,7.955,7.955,0,0,1,4.478,1.791,21.58,21.58,0,0,0,11.756,3.473h1.9a21.342,21.342,0,0,0,8.846-3.7,7.839,7.839,0,0,1,4.139-1.567c2.8,0,6.831,1.343,7.279,4.592a12.326,12.326,0,0,0-2.015-.339,3.045,3.045,0,0,0-2.353,1.01c-1-1.791-2.91-2.572-4.925-2.91,3.249.781,5.258,4.254,5.482,7.388l-1-.115-2.687.115a4.008,4.008,0,0,1-2.015-.339c-.786-2.91-2.348-4.811-5.488-4.811h-.109c3.025.672,4.925,3.806,5.149,6.716a10.69,10.69,0,0,0-5.488-1.567,6.531,6.531,0,0,0-2.572.448v-.448a5.726,5.726,0,0,0-1.567-3.806,6.032,6.032,0,0,1,1.119,3.358,3.573,3.573,0,0,1-1.791,3.134c-1.343,1-2.239,1-3.134,2.572-1.343-2.572-4.925-2.015-4.925-5.706a6.962,6.962,0,0,1,1-3.358,6.379,6.379,0,0,0-1.452,4.254,6.881,6.881,0,0,0-2.577-.448,10.4,10.4,0,0,0-5.482,1.567c.333-2.91,2.13-6.045,5.149-6.716h-.224c-2.91,0-4.592,1.9-5.264,4.811a4.674,4.674,0,0,1-2.124.339l-2.577-.115-1.119.115c.224-3.134,2.244-6.607,5.488-7.388a6.715,6.715,0,0,0-4.925,2.91,3.049,3.049,0,0,0-2.348-1.01l-2.13.339m.339-10.075-1.25-.885-1.327-.8h.781a4.58,4.58,0,0,1,2.13.448l-.333,1.234m-.093-2.37-.737-.906a8.918,8.918,0,0,0-1.862-1.425h.562a4.556,4.556,0,0,1,3.025,1.119l.448,1.229L245.6,37.17a15.293,15.293,0,0,1,1.791,2.009l-.557.786-.541-1.027m.142,7.115-1.491-.366-1.474-.126a5.685,5.685,0,0,1,3.025-.672,11.893,11.893,0,0,1,2.8.333l1.343,1.567-.825.295-.743.377-1.218-.814-1.414-.6m1.431-23.884,1.9,2.414,1.545,2.4V29.1a47.594,47.594,0,0,0-4.925-7.383,42.613,42.613,0,0,1,4.925,8.393v3.691l-1.387-4.166A46.058,46.058,0,0,0,243.244,18.7a9.15,9.15,0,0,1,2.424,1.392l2.2,2.08m-.726,10.7.814,1.272,1.562,3.806-.557.224a21.043,21.043,0,0,0-1.9-3.473,28.6,28.6,0,0,1,1.567,3.7l-.672.333c-1.01-3.02-2.353-6.263-4.707-8.617a6.093,6.093,0,0,1,2.818,1.551l1.076,1.207m.164-5.379,1.1,1.611c.442.786,2.91,5.373,2.91,6.159V37.17l-2.4-4.843-2.643-4.674c1.682,3.358,3.582,6.826,4.925,10.3a1.613,1.613,0,0,0-1.234-.109A67.665,67.665,0,0,0,242.8,23.622a9.4,9.4,0,0,1,3.216,2.321l1.283,1.551m2.55,29.372-1.971.519-2.059.268c-2.015,0-6.269-.562-6.269-3.249a3,3,0,0,1,.562-1.676l.109.557c.115-2.572,1.343-2.687,3.244-3.358a3.978,3.978,0,0,0-1.562,2.8c0,2.239,2.572,3.806,4.587,3.806l.819-.093.792-.246,1.523-.672.224,1.343.109.339v-.339h.339l1.567.224a15.836,15.836,0,0,1-7.055,2.239L240.9,59l-.841.082-.841.251V59.1c.339-.9,1.458-1.343,2.244-1.676a16.428,16.428,0,0,0,4.587.781,6.2,6.2,0,0,0,2.96-.7l.846-.639M237.663,44.64l.546.027L237.428,44l-.224.448m.89-2.8-.448-.333-.557,1.458m1,2.572-.89-.786-.224.339.513.349m.153.322-.781-.448-.109.224c.109.224.557.224.781.224h.109m-1.338-4.592-.355.956-.431.95,1.234-1.682m-1.343-3.244.2-.4.027-.491-.115-.672.339.109.672-.109a2.559,2.559,0,0,1-.677,1.354l-.442.213m.224,9.512,1.021.983a3.289,3.289,0,0,0,1.436.475.749.749,0,0,1-.448.672h-.109a2.617,2.617,0,0,1-2.124-2.015l.224-.115m.224-32.348v-.224l-.9.224m0,18.467.137-.448-.027-.442h.224l.562-.224.333.89c0,.224,0,.448-.224.562l-1-.339m1,11.418.448.513c.41.7.808,1.84,1.9,1.84a1.269,1.269,0,0,0,.9-.339l.339-.224a1.165,1.165,0,0,1,.448.9.95.95,0,0,1-.786.9l-.448.115a4.29,4.29,0,0,1-3.8-2.687l.377-.672L235.97,45M234.742,6.716l.109-1.119-.109-.781a1.817,1.817,0,0,1,1.119,1.791v.557l-1.119-.448m0,7.617.208-.5.464-.169.333.109M234.4,55.97l1.289-.5,1.289-.164a7.2,7.2,0,0,1,2.233.333v.109a2.882,2.882,0,0,0,1.01,1.01l-1.01-.115h-.224a6.5,6.5,0,0,0-2.9.672L234.4,55.97m1.048-23.518-.377.126a1.406,1.406,0,0,0-.786-1.119,1.194,1.194,0,0,0,.677-.781l.781,1.567-.295.207m.071,15.011-.535.087-.36.251c-.224-.224-.339-.339-.339-.562s.677-.448.677-.448l.557.672m0-10.184-.093.295a1.056,1.056,0,0,1-.8.377.708.708,0,0,1-.786-.781,2.487,2.487,0,0,1,.562-1.234,1.808,1.808,0,0,1,1.021.879l.1.464m-1.207-24.5.481-.251.5-.1a1.264,1.264,0,0,1,.9.333c-.109-.448-.672-.448-1.119-.448a1.679,1.679,0,0,0-1.567,1.234l.808-.77m1.305,1.971.688.142-.224-.672.224-.672-.339.115-.557-.115a.963.963,0,0,0-1.01.786,1.484,1.484,0,0,1-.9.333l1.4.071.715.011m-1.665,10.44.251.306.082.481h-.109l-1.01-.224-.109-.562.557-.109m.688,17.179,1.108-1.622-.448-.224a12.631,12.631,0,0,1-2.02,3.134l1.36-1.289m-.464-17.4h-.224l-.672.224-.109-.339.672-.448m-.448,1.682.655.36.24.535c0,.333-.224.448-.339.448-.448,0-.672-.562-.9-.786l.339-.557m-.044,6.209.715-.278a.963.963,0,1,1,0,1.9,1,1,0,0,1-1.01-1l.295-.617m.044,2.758.448-.688h.224a1.981,1.981,0,0,0,1.119-.448,2.2,2.2,0,0,1,1.458,1.791c0,.339-.224.448-.562.448a1.563,1.563,0,0,1-1.458-1.343v.672c-.224.448-.557,1.119-1.229,1.119-.562,0-.786-.109-.786-.781v-.339l.442-.158.344-.273m-.448-10.309-.448-.115.672-1.01.333.453m.562-16.125-1.682,1.8a.41.41,0,0,1-.442-.448c0-.393.36-.732.808-.967l1.316-.382m-.339,26.309-.53.617-.7.278a.727.727,0,0,1-.672-.672,1.617,1.617,0,0,1,.557-1.234l.339-.218.295.781.71.448m-.557-8.617-.268.5-.519.169a.642.642,0,0,1-.666-.672.717.717,0,0,1,.666-.672l.519.208.268.464m.109,6.154-.4.475-.153.644-.672.224a.644.644,0,0,1-.672-.672,2.164,2.164,0,0,1,.339-1.119l.737.431.825.016m2.02,7.721.945.41a15.943,15.943,0,0,0,3.3.486c.786.115,2.02.448,2.02,1.343,0,1.906-1.906,2.02-2.02,4.592-.109.448-.672.672-1.229.672-.781,0-1.343-1.01-1.567-1.682A2.6,2.6,0,0,0,237.09,44l.448-.448h.672l-1.567-.224c-1.9,0-3.921,1.119-5.035,1.119-.448,0-.562-.224-.562-.557l2.124-2.075,1.8-2.408m-4.03-11.866-.339-.218c0-.448.448-.786.562-1.01l.672.339a1.578,1.578,0,0,1-.584.8l-.311.093M231.2,7.672l.732-.371.683-.137-1.791,2.02c-.333,0-.448-.115-.448-.339l.24-.639.584-.535M230.9,18.042l-.306-.126c-.224,0-.224.224-.224.333,0,.224,0,.339.224.339s.448-.115.448-.339l-.142-.208m.142,7.71v.333c-.109.339-.333.339-.672.339-.224,0-.672,0-.672-.339s.562-.448.786-.448l.557.115m.278,1.873.393-.306.109.459.229.109-.131-.207-.093-.475V27.1l.218-.448h.562l.224.333-.153.628-.169.251.262-.137.169-.519.672.224a.529.529,0,0,0,.562-.557,1.428,1.428,0,0,0-.448-.786h.557v.562a7.511,7.511,0,0,1-1.119,3.582,5.589,5.589,0,0,1-3.467-3.921c.115.339.672.339,1.01.339a.611.611,0,0,0-.339.557.719.719,0,0,0,.562.557l.388-.137m-.251,28.111.721-.453.6-.541a.846.846,0,0,1,.672.781c0,1.119-2.015,1.119-2.91,1.119H229.7l-.109-.333,1.48-.573m.2-49.019-.644.688-.475.77c-.109.224-.109.448-.448.448l-.224-.448a1.26,1.26,0,0,1,.644-.977l1.147-.481M231.045,25.3v.224l-.672-.115c-.224,0-.781.224-.781.672l-.224-1.343,1.676.562m-.77-2.228-1.469-1.245a3.1,3.1,0,0,0,1.458-.781,1.045,1.045,0,0,0,1,.557c.339,0,.562-.448.562-.781a2.04,2.04,0,0,1,1.452,1.229,11.625,11.625,0,0,1-1.452,2.015l-1.556-.994m1.245,6.749.819.552.945.41a7.091,7.091,0,0,0,1.682-4.363,2.922,2.922,0,0,1,.448,1.676c0,1.567-.786,3.473-2.577,3.473a2.553,2.553,0,0,1-1.343-.672c-2.015-1.458-2.687-4.368-2.91-6.716l.672.557a6.715,6.715,0,0,0,1.573,4.418l.693.666m-.2-13.646.486.42.464.191a.9.9,0,0,0,.9-.448l-.333.115a.821.821,0,0,1-.9-.9l.224-1.452c0-.562-.448-1.125-.448-1.573l.557-1.119c.339-.557,1.234-.672,1.682-1a8.275,8.275,0,0,0,1.906-1.567h.9l.36.633.2.71a.837.837,0,0,0-.557.9,1.5,1.5,0,0,0,.333.9V12.2c0,1.229,1,2.463,1.676,3.473-.224.333-.781.333-.9.666l-.333.115c-.557,0-.109-.333-.448-.448l-.109.224c0,.448.557.333.89.224l-.109.672a2.048,2.048,0,0,1-1.676.562c.109.448.781.781,1.119,1a.522.522,0,0,0-.339.562c0,.448.448.781.448,1.119,0,1-3.025,1-3.582,1l-.562-.109V21.05c0-1.119-.448-2.239-1.786-2.239h-.339a2.26,2.26,0,0,1,1.791,1.9h-.224c-.448.115-.781-.672-.781-1.229-.448.333-.115,1.791-.672,1.791s-1.01-1.119-1.01-1.567a1.074,1.074,0,0,0-.109,1l-1.01.672-.109-.448a2.251,2.251,0,0,1,1.791-2.124,2.524,2.524,0,0,1-2.244-2.353c0-.781.677-.9,1.234-.9l.967.191.655.426m-3.413,6.547.672-.786a25.287,25.287,0,0,0,3.134,2.577,1.5,1.5,0,0,0-.672.562l-1.693-1.054-1.442-1.3m.557,15.115-.142.513c-.251.464-.754.8-.754,1.387l-.109-.339.1-.448.464-.775.1-.453a2.365,2.365,0,0,0-.448-1.234l.6.508.18.841m.633,16.425.95-.393a2.932,2.932,0,0,0,1.332-1.371h.224c.557,0,1.114.109,1.114.781,0,1.458-3.129,2.687-4.363,2.687-.672,0-1.119-.224-1.119-.89l.224-.786.672.109.967-.137m-1.78-47.883.923-1.01-.109.672a3.526,3.526,0,0,0,.672,1.906c0,.672-.786.9-1.234,1.01a1.409,1.409,0,0,1-.672-1.234l.115-.683.306-.661m-.2,15.672-.339-.36a3.555,3.555,0,0,1-.333-1.655V17.13l.377,2.463.295,2.463m-1.338-8.284.371-.453c1.043-.879,3.222-.584,4.887-2.348-.169,1.846-2.162,1.933-3.811,2.282l-1.447.519m0,1.791,1.278-.754c1.365-.552,2.921-.7,4.1-2.048-.087,1.764-2.124,1.955-3.844,2.315l-1.529.486m1.229-3.511-1,.153h-.448c1.452-.786,2.9-1.119,4.363-1.791a6.816,6.816,0,0,1-1.835,1.234l-1.076.4m-1.567-.967.617-.524a11.268,11.268,0,0,1,2.517-.928l-1.442.934-1.693.519m.115,20.264.109.9-.224,1.786a3.067,3.067,0,0,0,1,2.353c-1.114-.448-1.338-1.234-1.338-2.463l.448-2.572m.016-9.316.541,1.338a5.048,5.048,0,0,1,.781,2.381l-.109.448c-.339-2.015-2.124-3.364-2.124-5.821a8.382,8.382,0,0,1,.557-2.8,9.744,9.744,0,0,1,.115,2.577l.24,1.878m-.732,35.242-.295-.967-.109.448a2.145,2.145,0,0,0,.781,1.567l.339-.339-.715-.71m1.436-30.087.366.9.142.906v.224l-.906-1.884c-1.152-1.917-2.79-3.91-2.79-5.837a5.7,5.7,0,0,1,.677-3.025l-.224,1.682a9.571,9.571,0,0,0,1.622,5.133l1.114,1.9m-.612,32.364,1.283-.224,1.289-.557a4.572,4.572,0,0,1-2.124.448,2.008,2.008,0,0,1-2.239-2.239,1.842,1.842,0,0,1,1.01-1.676,3.121,3.121,0,0,0,3.129,2.572,3.18,3.18,0,0,0,1.682-.448,2.545,2.545,0,0,0,2.015,1.791,5.234,5.234,0,0,1-3.134,1l-2.239-.109a4.047,4.047,0,0,0-2.91,1,2,2,0,0,1-.448-1,1.578,1.578,0,0,1,.9-1.343,1.521,1.521,0,0,0,.77.6l1.021.18m-2.348-44.885.546.153.459.41.224.9v.218l-1.343-.109a1.655,1.655,0,0,1-.9-1.343l1.01-.224m-.786,21.269v.672c0,1.119,1.119.562,1.234,1.567-.562-.557-1.573-.333-1.573-1.452l.082-.437.257-.349m.087-11.582.47.95c.786,1.343,2.8,3.467,2.8,5.035a20.269,20.269,0,0,0-1.676-2.577c-1.234-1.562-2.353-2.457-2.353-4.811a6.334,6.334,0,0,1,.333-2.015l.153,2.31.273,1.108m-.311-6.553-.562-.109a2.978,2.978,0,0,1,2.468-1.234,1.894,1.894,0,0,1-1.261,1.245l-.644.1m-.562,13.433-.42-.2-.251-.36v.109c0,.448.224.786.562.786.224,0,.557-.339.781-.562l-.672.224m1.119-14.891-.6.158-.519.4a2.087,2.087,0,0,1-.9-.781,1.481,1.481,0,0,1,1.01-.672l.459.53.546.36m-2.9,11.642-.48-.191-.306-.366v.109c0,.448.115.9.562.9a1.268,1.268,0,0,0,.9-.557l-.672.109m.781,23.4.961.153a4.364,4.364,0,0,1,2.173,1.747,5.843,5.843,0,0,0-2.015-.333c-1.343,0-3.134.9-3.134,2.463v.224a2.894,2.894,0,0,1,1.343-1.682c.339.115,1.229.448,1.229.786,0,.672-1.676,1-1.676,2.239,0,1.567,2.348,1.676,3.582,1.567-.339.333-.672.672-.672,1h-.448c-2.463,0-4.816-1.452-4.816-4.248a4.086,4.086,0,0,1,2.779-3.833l.693-.087m-.3-28.651-.481.541-1.343.8-3.14-1.343h.115c1.119,0,3.7-.672,4.145-1.791l.9-.224c-.224.448,0,.786,0,1.343l-.191.677m13.285,14.885h.109l.562.781-1.01.224.9.109-.109.339a3.274,3.274,0,0,1-1.458,0,1.616,1.616,0,0,0,1.234.557l-.115.115-.781.109-.786-.109a2.339,2.339,0,0,0,1.343.557l-.109.115h-.448a3.135,3.135,0,0,1-1.01,0l1.119.557-.224.224h-.333l-.9-.109a2.848,2.848,0,0,0,1,.557l-.448.448a2.227,2.227,0,0,1-1.229,0l.9.453-.448.448h-1.119c.115.224.448.333.672.448-.333.224-1.452,1.114-1.9,1.114l-.9-.109-.9-1.9-.224-.339v.339l-.672-.115a1.491,1.491,0,0,0-.89.339l.333-.115,1.343.224.109.448a6.723,6.723,0,0,0-1.562.224h.333l1.343.115.109.333-1.452.224h.333l1.343.224v.224a2.239,2.239,0,0,0-1.229.333l.557-.109L227.8,45l.115.339-1.234.333.562-.109.9.109c.224.672,1.119,1.458,1.119,2.239l-.448.9a11.9,11.9,0,0,0,2.015,3.7,2.463,2.463,0,0,1-2.015,1.452c-.786,0-1.01-.448-1.119-1.119a2.043,2.043,0,0,0,.781-.672l-.9.448-.109-.333.9-.786-1.01.448-.109-.448a1.486,1.486,0,0,0,.781-.672l-.9.448-.109-.224.781-.781a1.443,1.443,0,0,1-1.119.448c-.224-.448-.781-.786-1.114-1.229a1.554,1.554,0,0,0,.89-.677,1.842,1.842,0,0,1-1.229.453c-1.343,0-.781-1.458-1.229-2.353-.224-.672-2.02-3.02-2.692-3.02-.557,0-.666-.115-.89-.562v-.448a5.09,5.09,0,0,0-.9-2.577,5.477,5.477,0,0,1,.448,2.692v.224l-.562.109a1.547,1.547,0,0,1-.781-1.343v.339a1.762,1.762,0,0,0,.333,1l-.333.339a3.424,3.424,0,0,1-.786-1.01l.448,1.234-.672-.9.448,1-.109.115-.562-.9a1.76,1.76,0,0,0,.339,1h-.115l-.562-.781.339.89-.224.224-.562-1,.339,1.119-1.01.224c-.781-.448-1.676-1.119-1.676-2.015l.224-.786,1.791-1.436,1.458-1.7h.333c1.119,0,2.354-1.338,3.02-2.009l1.01,1.119c.333.109,1.234.333,1.234.666s-1.458.448-1.458,1.567c0,.672.9,1.234,1.567,1.343a1.305,1.305,0,0,1-.672-1.119c0-.9,2.13-.109,2.13-1.452,0-1-1.567-1.452-1.567-2.239a2.4,2.4,0,0,1,1.119-1.682c0,2.13,2.8,1.8,2.8,2.916,0,.557-1,1.114-1,2.009,0,1.791,3.244,1.458,3.244,3.473l-.224.781a1.421,1.421,0,0,0,.562-1.229c0-1.682-2.02-1.567-2.02-2.8,0-.672,1.458-1.229,1.458-2.457,0-2.02-2.687-1.458-2.687-3.473,0-1.9,1.452-2.124,1.452-4.363a6.505,6.505,0,0,0-.672-2.91c.339,0,.448-.448.448-.672a4.109,4.109,0,0,0-.781-1.906,5.738,5.738,0,0,1,.781-1.682,2.742,2.742,0,0,0,.672,1.234v.672a9.1,9.1,0,0,0,1.906,5.821,2.285,2.285,0,0,0-.672,1.567,2.35,2.35,0,0,0,.786,1.567l-.115.9a1.56,1.56,0,0,0,1.119,1.343l-.109.448a1.08,1.08,0,0,0,.835,1.037l1.513.2-1.316-.328c-.448-.18-.808-.459-.808-.906l.109-.672c-.333,0-1.119-.562-1.119-1.01a1.71,1.71,0,0,1,.448-1.119,1.545,1.545,0,0,1-.781-1.338,2.07,2.07,0,0,1,.557-1.343l.224.224-.109,1.119c0,.557.109.89.781.89a2.574,2.574,0,0,0-.672,1.343,1.017,1.017,0,0,0,1.119.9l-.224.562a1.03,1.03,0,0,0,1.119,1.01l.557-.115.115.786m-20.706-15.9,1.119-.224a1.53,1.53,0,0,0,.557.89l-1.676-.666M212.8,50.6l-.115-.109-.109-.339h.333m-.448-9.512v-2.91h.562V40.3m3.02-15.89-.8.573-.879.322a.756.756,0,0,1-.672-1.01l-.339.115c-.672,0-1.458-.339-1.458-1.01l.115-.672,4.03,1.682,1.174.4,1.179.491a2.77,2.77,0,0,0-.9,1.791,3.893,3.893,0,0,0,2.244,3.134c.109,1.229-.339,2.9,1.562,2.9h.448c-2.457-.781-.672-2.348-1.786-3.467a1.981,1.981,0,0,1-1.906-2.239,4.975,4.975,0,0,1,.562-2.124c2.124.9,4.472,2.8,4.472,5.373a8.185,8.185,0,0,1-1.567,4.139,6.524,6.524,0,0,0,1.682-4.254,5.06,5.06,0,0,0-.786-2.8c1.234.562,2.468,1.343,2.468,2.8a8.281,8.281,0,0,1-.339,1.791c-.781,1.567-4.587,6.269-6.378,6.269-.562,0-.677-.781-.677-1.119l.115-.557a1.094,1.094,0,0,0,1.01-.453l.9.339a1.308,1.308,0,0,0,1.229-1.01,1.276,1.276,0,0,1-1,.672,1.016,1.016,0,0,1-.786-.333,2.217,2.217,0,0,1-1.343.672,1.1,1.1,0,0,1-1.119-1.01l.224-.672a1.77,1.77,0,0,0,1.343-.557,1.184,1.184,0,0,0,1.01.557,1.851,1.851,0,0,0,1.343-.9,2.147,2.147,0,0,1-1.119.562,1.682,1.682,0,0,1-1.01-.448l.224-.339a3.039,3.039,0,0,1-1.791.9c-.672,0-1.343-.333-1.343-1.119l.109-.672a2.566,2.566,0,0,0,1.234.339,1.3,1.3,0,0,0,1.458-1.567v-.224c0,.672-.339,1.452-1.125,1.452a2.508,2.508,0,0,1-1.452-.666l.448-.448a1.972,1.972,0,0,1-1.229.672,3.351,3.351,0,0,1-1.119-1.567,3.983,3.983,0,0,1,.448-1.234l.672.115c0,.448.224,1.119.781,1.119a3.165,3.165,0,0,0,1.9-.786,3.636,3.636,0,0,1-1.452.448c-.672,0-.786-.224-.672-.781v-.115c.672-.224.781-1.01,1.791-1.01h-.339c-.781,0-.672.9-1.9.9a1.789,1.789,0,0,1-1.567-.9c-.557-.109-1.119-.448-1.119-.9a2.093,2.093,0,0,1,.339-.89l.557.109a1.687,1.687,0,0,0,1.682,1.229,2.935,2.935,0,0,0,2.009-1,3.233,3.233,0,0,1-2.009.557A1.212,1.212,0,0,1,213.7,27.2l1.452-.557-1.343.109c-.672,0-1.453-.109-1.453-.9a1.9,1.9,0,0,1,.333-1.119h.672a.9.9,0,0,0,1.01.786,1.647,1.647,0,0,0,.961-.393l.715-.726m-3.358,18.467.786-.224A2.734,2.734,0,0,0,214.925,45l-1.343.115-.9-2.239m0,0,.224,1.163.562,1.076h-1.01l-.42-.983-.251-1.141m-.562,5.592v-.109h.448l-.448-.339h.672l-.322-.082-.235-.251h.672l-.562-.224.115-.115h.672l-.562-.224.224-.224.786.224-.557-.333.672-.115c.9,0,1.343.9,1.452,1.791a3.3,3.3,0,0,1-1.452.562l-.83-.2-.743-.366M210.9,40.97V37.617l.672.109V40.97m.235,8.3,1,.213a3.158,3.158,0,0,0,1.791-.677h.109l.115.115c0,.562-1.567,1-2.015,1a3.206,3.206,0,0,1-1.8-.666l.448.109-.557-.562.906.464m-.2-5.177.41,1.021L211.229,45a5.975,5.975,0,0,1-.448-2.009c.224.109.448,0,.672,0l.153,1.1m-1.382-1.1h.448L210.9,45h-.672c-.224-.109-.224-.557-.224-.781l.224-1.229m-.366-12.657-.2.344c0,.781,1.234,1,1.791,1.119,0-.339-1.229-.672-1.229-1.119,0-.224,1.567-.562,1.791-.672h-.786l-.912.126-.459.2m-.306,10.189V37.279l.672.115v3.467m-.781-19.7.781.115,1.343-.339c.224.448.562.562,1.01.786a4.071,4.071,0,0,1,1.567.781l3.467,1.567L220.97,25.3a1.5,1.5,0,0,0,0,1,8.847,8.847,0,0,0-2.572-1.567l-8.955-3.582M210,27.652l-.726.18a.685.685,0,0,0-.393.6c0,.562.672,1.125,1.119,1.458,0-.333-.672-.9-.672-1.343,0-.672,1.229-.786,1.567-.786l-.9-.109m-.743,28.46.6-.655.814-1.5h.224c.448,0,.672.115.672.562,0,.672-1.791,2.687-2.463,2.687-.333,0-.448-.339-.557-.672l.71-.42m-.934-16.261V36.722l.557.333v3.134m-.448-15.268-.317.246-.131.36c0,.672.786,1.229,1.234,1.452a2.848,2.848,0,0,1-.9-1.452c0-.448,1.229-.672,1.562-.672l-.666-.115-.786.18m-.109-3.2-.464.1-.208.344c0,.786,1.229,1.234,1.791,1.343-.224-.224-1.343-1-1.343-1.343l.9-.224-.672-.218M206.98,38.4V35.936l.672.448v2.8m.224-21.487.835.18.841-.071,1.119.9a12.235,12.235,0,0,1-2.91.672,1.567,1.567,0,0,1-1.567-1.343l1.682-.333M206.232,37.35l-.262-.295V35.149l.448.448v2.13m1.458,8.731.333-.448-2.353-.339-1.567-.109,1.567.333m-.9-29.885.366.306.53.142,1.01.109a1.239,1.239,0,0,0,.786,1.01l-1.8.115c-1.119,0-2.457-.115-2.457-1.458V15.9l1.562.109M206.533,47.8l.448-.448-1.125-.115-2.572-.333,2.572.672m-.781,1.229.333-.333-2.457-.339m1.229-19.363.683.295.994.038a2.685,2.685,0,0,0,1.349-.333,2.089,2.089,0,0,0,1.567.557l.224-.109c-.786,0-1.791-.339-1.791-1.343a1.361,1.361,0,0,1,.333-1c-.333-.224-.9-.672-.9-1.01,0-.781,1.119-1.343,1.119-1.791,0-.672-1.567-1.343-1.567-2.572l.224-.9,4.811,1.9-.109.781a1.393,1.393,0,0,0,.557,1.125l-.109.9a1.829,1.829,0,0,0,.562,1.452,2.114,2.114,0,0,0-.339,1.119c0,.786.786,1.229,1.458,1.452l.333.339a2.479,2.479,0,0,0-.557,1.234c0,.781,1.119,2.124,2.015,2.015l-.224.781a1.385,1.385,0,0,0,1.338,1.452l-.109.562a1.493,1.493,0,0,0,.9,1.234v.109l.109.339-1.791.224c-.89,0-2.009-.224-2.009-1.349l.224-.9h-.9c-.9,0-1.682-.109-1.682-1.119a2.63,2.63,0,0,1-1.343.224c-.224,0-1.9-.448-1.9-.9s1.229-.89,1.567-1c.333,1,1.562,1.229,2.348,1.229v-.448h-.448c-1.119,0-1.9-.224-1.676-1.452a1.184,1.184,0,0,1-1.01-.557,2.881,2.881,0,0,1-2.13.672l-.448-.115a1.168,1.168,0,0,1-.448-1.229l-1.119.333a1.444,1.444,0,0,1-1.562-1.791l.726-.142.726-.306m-.115-.109-1,.36-1,.2a.942.942,0,0,1-1.01-1.01v-.224h.224a10.327,10.327,0,0,0,2.463-.666l-.109.442.093.535.349.366M201.3,13.018l.644.53v.115c0,.9.672,1.343,1.567,1.343l1-.115.224.786c-1.338-.224-4.139-.786-4.139-2.692l.224-.672.475.7M202.727,25.3l.306.339a2.1,2.1,0,0,0,1.256.333h1.567l.677-.115.557.786-.109,1.114.109.9-1.234-.115c-.672,0-2.009-.224-2.009-1.119l.218-.448h-.109a10.663,10.663,0,0,1-2.239.448c-.557,0-1.234,0-1.234-.672l.115-.672,2.13-.781m-1.682,7.721-.082.208-.257.126a.354.354,0,0,1-.333-.333.293.293,0,0,1,.333-.333l.257.082.082.251m0,15.557H200.6a3.159,3.159,0,0,1-.786,1.458l.825-.644.41-.814m.044-1.5.071-1.523h.109c.339.448,0,1.676,1.01,1.676.9,0,.781-1.567.781-2.124l1.119-.786h.448l1.229.115,2.353.557c.9.224,1.791.224,2.015,1.234a19.417,19.417,0,0,1-3.244,2.8l-1.125,1.01h-1.343l1.234.333.224.448h-.115a2.666,2.666,0,0,1-1.343,0,1.729,1.729,0,0,0,1.234.339h.448l.786.781a2.365,2.365,0,0,0-.448,1.234,2.465,2.465,0,0,1,.781-1.01l.224.224a2.365,2.365,0,0,0-.448,1.234l.786-.9h.333a3.006,3.006,0,0,0-.557,1.229l.781-.9,1.791.672v.224l-.153.633c-.295.726-.967,1.605-1.638,1.605a2.188,2.188,0,0,1-.9-.333l-.448.557h-.109c-.339-1.114-.115-1.786-1.125-2.8a14.6,14.6,0,0,0-4.139-2.687c-.557-.224-2.13-.224-2.13-.9a14.532,14.532,0,0,1,.672-2.015.712.712,0,0,0,.6-.273l.229-.666m.5,9.7,1.42.47,1.392.175a3.1,3.1,0,0,0,1.452-.339,1.787,1.787,0,0,0,.562-.9c.115.448.224.672.672.672.224,0,.562-.224.562-.333a1.861,1.861,0,0,0,.781,0v.109a.71.71,0,0,0,.786.786,3.135,3.135,0,0,0,2.348-1.567l.786-.115.333.224s-1.791,2.015-2.463,2.015a.752.752,0,0,1-.562-.448,2.049,2.049,0,0,0,.562,1.343,11.887,11.887,0,0,0-4.368-1h-.333a9,9,0,0,0-4.478,1.229v-.224a2.082,2.082,0,0,1,.786-1.343,6.543,6.543,0,0,0-2.692-1.119L199.03,55.3l1.2.8,1.36.677m12.33-37.077.448.109a5.586,5.586,0,0,0,3.915-1.791,6.668,6.668,0,0,1-3.467,1.343,2.5,2.5,0,0,1-1.906-1,7.462,7.462,0,0,0,2.463-1.682,6.986,6.986,0,0,1-3.358,1.458c-.562,0-1.343.109-1.682-.562a16.927,16.927,0,0,0,2.916-1.343A11.519,11.519,0,0,1,209,17.353c-.562,0-1.343-.224-1.343-.9a13.183,13.183,0,0,0,3.244-1.343,14.165,14.165,0,0,1-4.03,1.01,1.516,1.516,0,0,1-1.01-.224,1.754,1.754,0,0,1-.672-1.343l.672-.224,1.349-.672-1.349.448a6.327,6.327,0,0,1-2.009.333c-.448,0-1.119-.109-1.119-.672v-.109h.333a8.823,8.823,0,0,0,2.8-.786l.448-.339-.448.224a8.43,8.43,0,0,1-2.8.672,1.944,1.944,0,0,1-1.9-1.452h.672a5.694,5.694,0,0,0,2.457-.448l-1.562.109c-1.343,0-4.478-.557-4.478-2.457l.164-.655.5-.579,3.386,2.141,3.555,1.889,5.821,2.91c2.577,1.01,8.622,2.577,10.189,4.7a2.456,2.456,0,0,0-1.119,1.01l-1.119.224c-.333,1-2.91,1.452-3.806,1.452a.937.937,0,0,1-1-1l.557-.448h.333c1.791,0,3.473-.224,4.259-2.015a3.763,3.763,0,0,1-3.588,1.676l-1-.109a3.639,3.639,0,0,1-2.124.9,1.305,1.305,0,0,1-1.119-.448l1.791-1.119-1.807.77a6.185,6.185,0,0,1-1.889.349,1.379,1.379,0,0,1-1.452-1.343,7.477,7.477,0,0,0,2.009-.786l.562.115.786-.115.852.628.939.382m-15.115,14.1-.339.339c-.333,0-.442-.224-.442-.339,0-.333.109-.448.442-.448l.213.1.126.349m.9-9.736.311.524a2.649,2.649,0,0,0,1.7.71l.9-.115V25.3l-1.54.459-1.709.213c-.448,0-2.233,0-2.233-.9a2.119,2.119,0,0,1,.557-1.119l2.015.109m-.672,32.572.781.224a3.421,3.421,0,0,0-2.009,1.343l.781.224c.224.115.448.224.448.448a.629.629,0,0,1-.672.562,1.242,1.242,0,0,1-1.229-1.234,1.517,1.517,0,0,1,1.179-1.463l.721-.1M196.01,34.7l-.1.355-.349.093c-.224,0-.339-.109-.339-.448a.3.3,0,0,1,.339-.333l.349.082.1.251m-.115-.557-.759.251-.251.754c0,.448.339.786,1.01.786a.867.867,0,0,0,.9-.786,1.054,1.054,0,0,0-.279-.754l-.617-.251m.923-4.778,1.092-.038-1.343-.224c-1,0-2.577.786-2.8,1.682a3.132,3.132,0,0,1,1.906-1.234l1.147-.186m-3.271.076,1.354-.672a6.741,6.741,0,0,1,3.009-.339,2.186,2.186,0,0,0-1.452-.333,5.025,5.025,0,0,0-4.145,2.353l1.234-1.01m-.453,5.482-.142.311-.3.137a.465.465,0,0,1,0-.9l.3.142.142.306m.448,5.821-.333-.109-.115.109c0,.339-.557.9-1,1.119l.852-.431.6-.688m-.672-6.378-.612.224-.278.557a.987.987,0,0,0,.89,1.01,1.085,1.085,0,0,0,1.01-1.01.711.711,0,0,0-.339-.557l-.672-.224m-.628,6.858.339-.524.18-.628-.333-.109a5.343,5.343,0,0,1-1.119,1.9l.934-.639m-.459-11.8,1.327-.906a9.945,9.945,0,0,1,2.561-1.2,8.36,8.36,0,0,1,2.91-.562l1.229.224a1.557,1.557,0,0,0,.786.9V28.1a1.19,1.19,0,0,0,1.01,1.119l1.567,2.91c1,1.9,1.452,4.03,2.681,5.936,1.125,1.676,2.916,3.353,5.04,3.353,2.463,0,4.587-2.124,6.154-3.8a1.394,1.394,0,0,0,.677,1.229,16.155,16.155,0,0,1-2.91,2.572,7.2,7.2,0,0,1-3.921,1.125,6.269,6.269,0,0,1-5.04-2.577c-1.343-1.9-2.009-4.145-3.02-6.269-.557-1.119-1.676-3.244-3.025-3.691a3.868,3.868,0,0,1,1.01.9H200.6c-2.463,0-4.7,1.567-7.164,1.567a2.86,2.86,0,0,1-2.8-1.682l.333-.557.814-.8m-.169,2.927.846.339.972.109c2.463,0,5.035-1.567,7.5-1.791l.781,1.234-.672-.115c-2.577,0-4.925,1.9-7.5,1.9a3.662,3.662,0,0,1-3.353-2.233l.448-.9.344.863.633.59m.246-15.027.9.251a3.9,3.9,0,0,0,3.358,1.906,3.158,3.158,0,0,1-2.239.672c-2.463,0-4.368-1.343-4.368-3.921l.115-.557a5.225,5.225,0,0,0,1.4,1.245l.835.4m-.442,9.545V27.1l-.486.349-.743.093c-.339,0-1.458-.218-1.458-.781l.448-.109.825.109,1.414.115m-.2,2.6-.7.393a4,4,0,0,1-1.567.366c-.224,0-.672,0-.672-.339s2.8-.672,3.358-1.01l.115.115-.535.475m.2-1.594-.229.278a2.993,2.993,0,0,1-1.338.278c-.339,0-1.791-.109-1.791-.672,0-.224.109-.442.333-.442l1.119.333.912.2.994.027m0,.557.115.229a9.241,9.241,0,0,1-2.916.666c-.557,0-.672-.109-.672-.666l.224-.229a2.694,2.694,0,0,0,1.343.115l1.906-.115m14.214-6.6-1.3.311-1.382.137a2.826,2.826,0,0,1-2.353-.9L202.5,20.6a6.275,6.275,0,0,1-2.577.557,3.825,3.825,0,0,1-3.02-1.676,7.321,7.321,0,0,0,2.681-.672,9.107,9.107,0,0,1-2.348.333c-1.452,0-2.91-.224-3.7-1.567h.115a4.519,4.519,0,0,0,2.687-.557,6.522,6.522,0,0,1-2.13.333,5.209,5.209,0,0,1-4.024-1.791h3.244l-1.9-.2c-2.375-.273-5.712-.863-5.712-2.708l.339-1.01,9.763,4.4,9.933,4.226V20.6l-.2.612-.027.617.7.994.65.573.377.251.295.42c0,.448-1.349,1.01-1.119,1.682l-.677.109h-.672a2.234,2.234,0,0,1-2.124-.9l1.567-.557a6.6,6.6,0,0,1-2.572.448c-.786,0-1.573-.224-1.8-1.01l1.349-.672a4.157,4.157,0,0,1-2.02.448,2.56,2.56,0,0,1-2.348-1.119l1.229-.672a10.3,10.3,0,0,1-2.572.448,1.92,1.92,0,0,1-1.906-1.452,3.636,3.636,0,0,0,2.244-1.343,4.257,4.257,0,0,0,3.8,2.015c.448.89,1.682,1.114,2.577,1.114a3.565,3.565,0,0,0,2.687,1.234l1.158-.24.524-.208-1.125.109a3.191,3.191,0,0,1-2.457-.9l1.158-.306,1.076-.475m-17.8,4.145-.349.251-.1.42c-1.229-.115-3.473-1.458-3.473-2.916,0-.448.562-.672,1.01-.448l2.91,2.692m-1,1.343-.339.666c-1.119-.109-4.7-2.009-4.7-3.244a.835.835,0,0,1,1.343-.672c.672.562.9,1.343,1.791,2.015l1.906,1.234m-5.264-8.507.775.322a10.418,10.418,0,0,1,1.573,2.364h-.448a.934.934,0,0,0-.9.333,3.858,3.858,0,0,1-1.338-2.348l.038-.42.295-.251m0-.786-.142.311-.306.137a.482.482,0,0,1-.448-.448.411.411,0,0,1,.448-.448l.306.1.142.349m1.758,9.07.59.333a9.88,9.88,0,0,0,2.468,1.119.7.7,0,0,0,0,.672c-1.01,0-5.712-1.458-5.712-2.572,0-.224.224-1.234.562-1.234l2.091,1.682m-1.076,1.2,2.343,1.032,1.791.453.333.557h-.672c-1.229,0-6.154-.448-6.154-2.239,0-.224.224-.672.448-.672l1.911.868m-1.687-10.719-.213.5-.459.169a.644.644,0,0,1-.672-.672.722.722,0,0,1,.672-.672l.459.213.213.459m-1.458,1.01.825.278.743.617c.786.672.672,1.676,1.119,2.572-.448,0-.9.557-1.229.781-.9-.781-2.244-2.124-2.244-3.353l.224-.7.562-.191m.224,6.94-.109-.224a1.461,1.461,0,0,1,1.343-1.458,1.451,1.451,0,0,1,1.786-1.234,1.08,1.08,0,0,1,1.119-.781,2.179,2.179,0,0,1,1.573,1l-.672.115-.562-.224c-.448,0-.786.557-.9.781h-.339c-.9,0-1.114.677-1.229,1.458,0,0-1.229,1.234-1.119,2.015-.448.115-1,.339-1,.9a1.388,1.388,0,0,0,.448.9c-.339.224-.224.448-.224.786-.448-.229-1.125-.339-1.125-.9a.807.807,0,0,1,.339-.677,1.332,1.332,0,0,1-.339-1.114,1.455,1.455,0,0,1,.568-1.169l.442-.175M179,17.468l-.082.377a.981.981,0,0,1-.928.519.9.9,0,0,1,0-1.8.976.976,0,0,1,.928.524l.082.377m-1.747,2.151.459.377a36.747,36.747,0,0,1,2.632,3.4c-.562,0-.9.448-1.01,1.01-1.119-.786-3.582-2.353-3.582-3.7a1.148,1.148,0,0,1,1.119-1.229l.382.137m-2.282,38.365,2.086-1.076a13.849,13.849,0,0,1,5.859-1.272,11.346,11.346,0,0,1,7.388,2.687,6.878,6.878,0,0,0-3.025-.448,14.231,14.231,0,0,0-3.691,1l1.791-1.567h-1a15.2,15.2,0,0,0-5.264,1.343l1.343-1.567a8.43,8.43,0,0,0-2.577.2l-2.9.7m2.124-39.96-.1.541a1.285,1.285,0,0,1-1.24.8,1.343,1.343,0,1,1,0-2.687,1.285,1.285,0,0,1,1.24.8l.1.541m1.791,7.055-.437.251-.349.42c-.9-.448-3.691-1.682-3.691-2.8,0-.224.448-1.452.9-1.452.224,0,.977.781,1.747,1.622l1.835,1.96M174.4,24.07l3.467,2.015a1.613,1.613,0,0,0-.109,1.234c-1.234-.115-3.691-1.119-3.691-2.577l.082-.42.251-.251m0-4.925.655.251.24.759a.8.8,0,0,1-.9.781c-.557,0-1-.333-1-.781a.981.981,0,0,1,.295-.759l.71-.251m.071,2.1.153.366c0,.448-.224.781-.672.781a.674.674,0,0,1,.115-1.338l.4.191m-.18,1.709-.142.311-.306.137a.513.513,0,0,1-.448-.562l.333-.333.41.142.153.306m22.273,1.791-1.059-.229a2.4,2.4,0,0,1-2.075-2.348l.224-.89a2.289,2.289,0,0,0,1.8,1.365l.781.087.415.491.59.4-.377.519-.295.6v.224c0,1.343,2.348,1.567,3.244,1.343v.448a11.908,11.908,0,0,0-3.467-.557,24.669,24.669,0,0,0-4.03.448l-.224.557a2.147,2.147,0,0,0,.562,1.119l-.224.224c-.448,0-.786-.672-.786-1.119l.339-.781-.339.109a4.924,4.924,0,0,1-2.463-.781l-.224.448a.625.625,0,0,0-.672.557.679.679,0,0,0-.448,1,.625.625,0,0,0-.339.562.823.823,0,0,0,.224.672c-.224,0-.333.224-.333.448a.752.752,0,0,0,.448.562v.333l-.115.115a.679.679,0,0,1-.666-.786.8.8,0,0,1-.339-.672.611.611,0,0,1,.339-.557l-.224-.453a.7.7,0,0,1,.442-.672l-.109-.218c0-.224.224-.562.448-.562v-.109a.428.428,0,0,1,.557-.339c.115-.333.339-.333.562-.333-2.8-1.458-4.816-4.478-6.045-7.279-.224-.448-.786-1.791-1.452-1.791h-.224a2.009,2.009,0,0,0-1.791-.448,1.875,1.875,0,0,0-1.349-.557c-.333,0-.781.109-.9.333l-1.338-.333a1.822,1.822,0,0,0-1.906,1.9v.786a1.212,1.212,0,0,0-.781,1.119l.224,1.119c-.115,0-.339.224-.339.557l.224.672-.109.672.333,1.343c1.791,5.035,7.5,6.94,12.313,6.94a19.083,19.083,0,0,0,5.149-.672,24.179,24.179,0,0,0-2.353,5.482,6.181,6.181,0,0,1-2.457,4.145c-1.458,1-3.364.781-5.04,1-1.9.224-4.368,1.349-4.368,3.582,0,1.567,1.119,1.906,1.119,2.8,0,1.119-2.572,1.676-2.572,3.582,0,1.343,1.676,2.572,2.687,3.02a2.522,2.522,0,0,1-1.119-1.676c0-2.015,4.816-1.01,4.816-3.806,0-1.791-2.239-2.91-2.239-4.7l.109-.448c1.567-1,4.925-.333,7.279-1.343a6.407,6.407,0,0,0,3.3-3.244l.5-1.567.2-1.01.027-1.01c-1.125,5.149-3.14,7.055-8.174,7.17l-2.239.109a2.266,2.266,0,0,0-1.791,2.239L179,43.548v.224c0,1.791,2.124,3.02,2.124,4.7,0,2.239-3.473,1.676-4.478,2.91.672-2.239,4.145-1.01,4.145-3.249a1.027,1.027,0,0,0-.448-.9l.109.448a1.131,1.131,0,0,1-1,1.234l.109-.672c0-1.682-1.567-2.577-1.567-3.7a1.47,1.47,0,0,1,.333-.89,1.682,1.682,0,0,0-.781,1.229c0,1,.9,1.567.9,2.463,0,1-1.234,1.229-1.906,1.676.562-.557,1.458-.9,1.458-1.676,0-1.119-1.119-1.234-1.119-2.463,0-2.124,2.239-3.358,4.03-3.582,1.791-.339,3.7.224,5.264-1.01,2.457-1.676,2.8-5.6,3.915-8.393.339,1.791,2.239,2.463,3.691,2.463a12.633,12.633,0,0,0,4.483-1.119.742.742,0,0,0-.448.781.863.863,0,0,0,.781.9.885.885,0,0,0,.9-.9.908.908,0,0,0-1.01-.9l2.13-.666a1.133,1.133,0,0,0-.448.781c0,.448.333.672.786.672a.739.739,0,0,0,.781-.672.937.937,0,0,0-.781-.781h.781c1.458,2.681,1.906,6.154,4.139,8.5a6.625,6.625,0,0,0,3.588,1.906l-.115,1.01.115,1a15.428,15.428,0,0,1-3.588-1,1.555,1.555,0,0,1-.672-1.234,2.684,2.684,0,0,1-1.676,1.791l-.9.557.115.786c0,.333,0,.9-.339,1-.9,0-.224-1.567-1.119-1.567s-.109,2.353-.9,2.353c-.672,0-.562-2.015-1.01-2.015-.672,0-.109,2.463-.9,2.463-.89,0-.442-2.015-1.229-2.015s-.448,1.791-1.119,1.791c-.557,0-.448-1.682-.557-2.13l-1.01.115a11.084,11.084,0,0,0,5.93-4.145h.224a1.738,1.738,0,0,0,1.458-.9,1.981,1.981,0,0,1-1.119.448H200.6l.224-.333a1.97,1.97,0,0,0,1.458-1.343,1.52,1.52,0,0,1-1.234.781l.339-1.452c-1.234,3.473-3.582,5.373-6.946,6.6a8.018,8.018,0,0,0-2.233,1.01,2.912,2.912,0,0,0-1.01,1.791,2.974,2.974,0,0,1-1.567.557h1.458v.339a3.74,3.74,0,0,1-1.682.562,3.778,3.778,0,0,0,1.567,0v.442a2.479,2.479,0,0,1-1.567.339,3.846,3.846,0,0,0,1.567.109,4.51,4.51,0,0,0,.339,1.682v.109l.557-.109a.721.721,0,0,1,.672.557c0,1.119-2.91,2.577-3.806,2.577-.448,0-.562-.109-.562-.448l.115-.562a4.33,4.33,0,0,0,2.659-1.2l.366-.819-.426.672a5.217,5.217,0,0,1-2.6,1.01c-.115-.786-.562-.672-1.119-.672-.333,0-.781-.115-.781-.562,0-.9,2.572-4.925,2.572-7.05,0-.786-.786-1.01-.786-1.567,0-1.119,3.14-1.119,3.14-4.254a4.873,4.873,0,0,0-.475-2.157l-.42-.639.5,1.147.169,1.311c0,3.473-3.364,2.8-3.364,4.592,0,.672.786,1,.786,1.567,0,2.015-2.572,5.821-2.572,7.05,0,1.119.9,1.01,1.676,1.01l.109.109c.224,0,.224.224.339.448l-.115.677.18.568.606.322,1.032-.218a6.405,6.405,0,0,0,2.665-1.682.728.728,0,0,1,.442.562c0,.781-2.8,2.124-3.691,2.124l-.339-.115-.109-.333V55.97l-.087.393.087.393a11.912,11.912,0,0,0-5.821-1.567A14.79,14.79,0,0,0,173.06,59.1a22.2,22.2,0,0,1,6.493-1.676,12.907,12.907,0,0,0-1.567,2.124,16.094,16.094,0,0,1,5.258-1.676l1.01-.224-3.244,2.8c1.9-.9,4.478-2.124,6.6-2.124a29.693,29.693,0,0,1,3.249.333l-.448-.781a8.145,8.145,0,0,0,3.353.557,1.258,1.258,0,0,0,.672,0,8.536,8.536,0,0,1-1.229-1.791l.224-.448c.448,0,.9,2.015,2.239,2.015l.562-.109-2.577-3.582a1.19,1.19,0,0,0-1-.562l.218-.9a.911.911,0,0,0-.89-1l-.672.109V50.712c0-2.463.448-3.921,2.8-4.7h1.234c0,.557-.115,2.124.781,2.124,1.01,0,.786-1.567,1.119-1.9l.115.109c.109.672.224,1.906,1.114,1.906.672,0,.9-1.234.9-1.791.115.448.339,1.343.786,1.567a4.881,4.881,0,0,0-1.01,2.015v.224c0,.672.786.781,1.343.9a11.374,11.374,0,0,1,5.373,3.134,2.891,2.891,0,0,1,.448,1.676c0,.224-.224.562-.448.562a2.537,2.537,0,0,1-1.229.333,8.325,8.325,0,0,1-6.493-3.358,9.006,9.006,0,0,0,.557,2.91h-.224a1.76,1.76,0,0,0-2.009,1.791,1.885,1.885,0,0,0,1.9,1.906A1.254,1.254,0,0,0,199.7,59a1.9,1.9,0,0,0-.672-1.119,1.672,1.672,0,0,1,1.119-.339l.9.115A1.359,1.359,0,0,0,200.373,59l.224,1c1.01-1,3.806-1.676,5.258-1.676h.448a10.669,10.669,0,0,1,4.254.781,5.191,5.191,0,0,0,2.244.339l2.348-.224-2.124-1.567.224-.224c.781,0,1.452,1.119,2.124,1.343l.224-.339c0-1.119-2.463-3.244-3.582-3.244l.115-.786c0-.672-.453-1-1.125-1l-.781.224c-.672-.339-3.921-2.687-3.921-3.473l1.682-1.343c1.119-.781,2.8-2.015,3.244-3.358l1.125.115v.9a2.185,2.185,0,0,0-1.458,2.015l-.448.448c0,.562,1.229,1.119,1.682,1.229a.644.644,0,0,0,.672.672c.333,0,.448-.333.557-.672.448-.109,1.682-.666,1.682-1.229a.482.482,0,0,0-.448-.448,2.051,2.051,0,0,0-1.682-2.015v-.9c1.567,0,5.149-.339,5.936-1.791h1.119a1.284,1.284,0,0,0,1.229.672,6.853,6.853,0,0,1,2.353,2.687c.448,1.119-.115,2.577,1.676,2.463.9,1.119,2.239,3.134,2.239,4.478v.109a1.443,1.443,0,0,0-.448,1.125,1.3,1.3,0,0,0,1.452,1.229l.786-.115.339.448v.224l-1.349.224c-1.119,0-2.457-.557-2.457-1.791a1.494,1.494,0,0,1,.224-.89h-.448a2.123,2.123,0,0,0-2.353,2.348l.339,1.343h-.9c-.672,0-2.457-.224-2.457-1.119,0-1.01,1.676-1.234,1.676-2.348,0-.562-.562-.9-1.119-1.125a2.806,2.806,0,0,1,1.791-.557,3.081,3.081,0,0,1,2.015.781c-.781-1.676-1.906-2.91-3.915-2.91a4.515,4.515,0,0,0-4.145,4.478c0,2.8,2.015,4.368,4.811,4.368h1.119V60a2.566,2.566,0,0,0,1.349,2.015c1.119-1.567,3.577-1.343,5.258-1.343a4.966,4.966,0,0,0,3.358-1.229l2.239.224,1.01-.115a8.026,8.026,0,0,1-1.234-1.676l.339-.448a10.981,10.981,0,0,1,1.567,1.791.529.529,0,0,0,.557-.562,1.149,1.149,0,0,0-.557-.9,5.33,5.33,0,0,1,2.9-.672l1.682.224-1.682.672a3.942,3.942,0,0,0-1,2.577v.9a7.537,7.537,0,0,1,1-1.567,4.531,4.531,0,0,1,1.682-.339l3.806.339,2.293-.284L249.288,59a3.463,3.463,0,0,0,1.906.448,7.244,7.244,0,0,0,2.13-.448h-.115c-.672,0-1.676-.448-1.676-1.119a.749.749,0,0,1,.448-.672l1.229.109a5.226,5.226,0,0,0,2.348-.557L255.224,60a9.152,9.152,0,0,1,6.716-2.8,5.168,5.168,0,0,1,2.353.448c1,3.134,4.363,2.8,5.258,4.478.562-1.01,2.124-1.343,3.134-2.015a4.368,4.368,0,0,0,2.015-2.463,6.348,6.348,0,0,1,2.463-.448,8.709,8.709,0,0,1,6.6,2.8,16.38,16.38,0,0,0-.224-3.244,5.57,5.57,0,0,0,2.244.557,8.7,8.7,0,0,0,2.348-.448,1.972,1.972,0,0,1,.448,1.343,1.6,1.6,0,0,1-1.9,1.682l1.452.109c1.343,0,3.358-.224,3.249-2.015,1.343,0,3.129.448,3.129,2.015a4.705,4.705,0,0,1-.448,1.682,3.864,3.864,0,0,0,2.02-3.806l1-.115a8.82,8.82,0,0,0,4.139,1.119c1.234,0,3.364-.448,3.7-1.9l1.119-.224h.224a1.221,1.221,0,0,1,1.458,1.452,2.07,2.07,0,0,0,.557-1.343,1.592,1.592,0,0,0-1-1.452,11.3,11.3,0,0,1,4.363-.9c.781,0,1.791.115,1.791,1.119,0,1.119-2.015,1-2.8.9.786,1.452,2.916,1.9,4.368,1.567l.224.781c0,1.01-1.791,1.234-2.577,1.343a7.653,7.653,0,0,0,2.244.224c1.114,0,3.582-.333,3.915-1.791a6.183,6.183,0,0,0,5.264,2.687c1.343,0,2.687-.224,3.467-1.452a3.925,3.925,0,0,0,2.239.557c1.343,0,5.821-.781,6.607-2.015l3.129.115a18.573,18.573,0,0,1,4.7,1c2.468.9,5.155,2.015,7.841,2.015A5.9,5.9,0,0,0,356.3,60c3.025.448,6.159,1.567,9.185,1.567s6.826-1.343,6.826-5.035c0-2.577-1.9-3.7-4.254-4.03a2.522,2.522,0,0,1,1.682,2.353,8.026,8.026,0,0,0-2.353-.224h-1.567c1.229.333,2.572,1.114,2.572,2.572,0,1.9-1.453,2.687-3.129,2.687l-2.13-.115c1.119,0,3.582-.224,3.582-1.791a2.84,2.84,0,0,0-.672-1.567l.115-.448a2.193,2.193,0,0,0-1.119-1.452l-.224.115-.339-.786a11.123,11.123,0,0,0-1.458-3.134c-1-1.682-3.129-3.7-3.129-5.6,0-1.676,1.9-4.816,2.572-6.716l.672-2.687a16.887,16.887,0,0,0,.339-3.244l-.115-1.234v.448c-3.02-.224-5.258-2.015-7.388-3.921l-.339-2.457c1.567,1.567,4.483,5.149,6.831,5.149h.333c-2.348-.672-5.482-3.7-7.273-5.373-.224-2.468-.781-4.925-1.119-7.5a21.92,21.92,0,0,1,8.169,7.5,24.612,24.612,0,0,1,3.921,13.766v1.567c0,1.906,1.567,2.91,1.567,4.478,0,.448-.224.557-.562.557-.672-2.124-1.562-2.009-1.676-4.811l-.109.781c0,2.353,1.452,3.473,1.452,4.478,0,.339-.115.448-.448.448-.9-2.015-1.9-2.015-1.9-4.7,0-1.567.333-3.129.333-4.7a10.353,10.353,0,0,0-.945-4.521l-.846-1.19.7,1.25a10.482,10.482,0,0,1,.759,4.123c0,1.682-.448,3.134-.448,4.811,0,3.134,2.348,4.592,2.348,6.607a3.413,3.413,0,0,1-.557,1.458l.333.109a5.6,5.6,0,0,0,2.463-4.145c0-1.786-1.234-2.348-1.906-3.806-.448-1.119-.109-2.687-.109-3.915a12.91,12.91,0,0,0-.339-2.91,24.668,24.668,0,0,0-4.7-11.642c-5.373-6.383-14.323-9.851-22.388-10.97a64.813,64.813,0,0,0-9.288-.672,7.522,7.522,0,0,0-3.134-1.119,5.845,5.845,0,0,0-5.04-3.249,5.545,5.545,0,0,0-2.348.562,7.614,7.614,0,0,0-3.582-.786c-2.239,0-3.806,1.573-5.04,3.364-1.676,2.457-3.8,3.358-5.035,6.263a15.285,15.285,0,0,0-.786,3.811c-.557.448-1.9,1.676-1.9,2.457,0,.562.786.562,1.119.672a12.617,12.617,0,0,0-1.229,3.811c-.9,0-1.906-.672-2.8-.672-.339,0-.672.109-.672.557,0,.9,1.906,1.9,2.577,2.124A19.632,19.632,0,0,0,301,35.488c0,3.582,1.125,7.164,5.04,8.06l1.119.115a6.1,6.1,0,0,0,4.925-2.8c1.01-.562,3.358-1.01,3.358-2.463,0-.9-1.229-.781-1.791-.781H313.1c-.115-.562-.677-2.353-1.349-2.353-1,0-1.119,1.791-1.119,2.463a5.334,5.334,0,0,1-2.9,1.567c-1.125,0-1.349-.9-1.349-1.791,0-2.687,2.13-5.258,4.03-6.94l-.218,1.343.218.562c.448,0,2.468-2.8,4.483-2.8,1.229,0,2.348.339,3.582.339a7.586,7.586,0,0,0,2.687-.448v.333a1.264,1.264,0,0,0,.333.9,1.681,1.681,0,0,0-.448,1.01c0,.224.224.448.448.672l-.224.666a.888.888,0,0,0,.333.786,2.6,2.6,0,0,0-.333,1.229,1.167,1.167,0,0,0,.781,1.119c-1.114,4.03-9.288,4.03-10.3,10.189l-.109-.339c-.562.115-1.119.448-1.119,1.119l.224.786c-.672.224-1.676.781-1.676,1.682,0,1.338,2.681,2.233,3.691,2.572l-.9-.115a8.9,8.9,0,0,0-5.821,2.13l-.562.448v-.109a1.587,1.587,0,0,0-1.114-1.573,8.206,8.206,0,0,0,.781-3.244l-.115-.786a4.888,4.888,0,0,1-2.009,1.682,9.732,9.732,0,0,0-2.244-3.358L300.9,48.7a6.867,6.867,0,0,1-2.124,5.373,8.8,8.8,0,0,1-2.015,1.567V55.3a6.3,6.3,0,0,0-1.125-3.364c-.557,2.015-1.791,4.03-4.139,4.03a4.062,4.062,0,0,1-2.015-.448V55.3a6.575,6.575,0,0,0-.562-2.577,5.183,5.183,0,0,1,3.025-1.234,2.228,2.228,0,0,1,1.234.224l.109-.781a4.14,4.14,0,0,0-1.9-3.249,10.019,10.019,0,0,1,5.373-1.229l2.8.109a7.688,7.688,0,0,0-5.6-2.015,11.044,11.044,0,0,0-2.687.339l1.791-2.348c.448-.115.448-.339.781-.677a9.554,9.554,0,0,1,3.473-1.9h.9a6.154,6.154,0,0,0-2.463-.672l-1.567.224a6.668,6.668,0,0,1,3.582-2.91,4.068,4.068,0,0,0-1.676-.339,4.435,4.435,0,0,0-2.687.786c1.114-2.8,2.348-5.373,4.7-7.388h-.562c-1.682,0-3.473,1.458-4.587,2.8a61.392,61.392,0,0,1,5.482-9.518c-4.254,1.119-6.826,5.373-8.507,9.07,1.682-5.264,4.811-9.742,8.174-14-4.145,1.01-6.94,4.7-9.185,8.174V20.264l1.119.224a2.444,2.444,0,0,0,2.468-2.572,3.386,3.386,0,0,0-1.119-2.463c-1.234-1.343-2.468-2.916-3.806-4.145a2.348,2.348,0,0,0-1.234-.448,3.073,3.073,0,0,0-2.015,1.119,14.258,14.258,0,0,1-4.03,2.239l-1.682.448a11.139,11.139,0,0,0-5.93-5.373,9.8,9.8,0,0,0-3.134-.557,10.7,10.7,0,0,0-9.179,5.6l-.339-.115A12.969,12.969,0,0,1,256,11.98a3.055,3.055,0,0,0-2.124-1.119,2,2,0,0,0-1,.448c-1.458,1.229-2.577,2.8-3.921,4.145a3.387,3.387,0,0,0-1.119,2.463,2.44,2.44,0,0,0,2.463,2.572l1.01-.224V26.2c-2.13-3.473-4.925-7.164-9.179-8.174,3.582,4.254,6.6,8.731,8.278,14-1.786-3.7-4.363-7.95-8.5-9.07a53.475,53.475,0,0,1,5.373,9.518,5.782,5.782,0,0,0-5.04-2.8c2.463,2.015,3.582,4.587,4.7,7.388a4.446,4.446,0,0,0-2.687-.786,4.068,4.068,0,0,0-1.676.339,7.867,7.867,0,0,1,3.691,2.91l-1.682-.224a6.153,6.153,0,0,0-2.457.672c1.9,0,2.9.781,4.363,1.9a1.2,1.2,0,0,0,.786.677l1.786,2.348a11.207,11.207,0,0,0-2.8-.339,8.132,8.132,0,0,0-5.706,2.015l2.572-.224a11.6,11.6,0,0,1,5.488,1.234,5.615,5.615,0,0,0-2.687,4.139,2.2,2.2,0,0,1,1.229-.224,5.153,5.153,0,0,1,3.02,1.234l-.557,2.463a6.834,6.834,0,0,1-2.687.672c-1.791,0-4.587-.9-4.587-3.134a4.185,4.185,0,0,1,1.786-3.244l-1.114-.115a2.914,2.914,0,0,0-2.91,3.02l-.9,1.234-.224,1.01.115.781a4.659,4.659,0,0,0-2.124-.557,12.611,12.611,0,0,0-2.916.666,3.44,3.44,0,0,0-1.453-.89,2.193,2.193,0,0,0,.448-1.349c0-1-1.119-1.119-1.9-1l-1.682-3.473a1.059,1.059,0,0,0,.224-.781c0-1.234-.9-1.791-1.234-2.8l1.234.115c2.572,0,4.7-1.791,7.388-1.791v.339l-1.119,1h-.109a1.434,1.434,0,0,0-1.119,1.229l.224.339c-.448,0-1.125.224-1.125.672,0,.333.448.448.562.781a2.793,2.793,0,0,0-1.458,2.463,4.58,4.58,0,0,0,.448,2.13,5.3,5.3,0,0,0,2.353-1.791,14.049,14.049,0,0,1-.557,2.015c1.567-.562,2.124-1.567,2.572-3.134a.9.9,0,0,0,.557-.562h.562l.333-.109a1.23,1.23,0,0,0,1.125-1.234,1.559,1.559,0,0,0-.786-1.343v-.109c0-1.119,2.239-2.572,2.239-4.592,0-1.452-1.452-1.676-2.577-1.9a30.235,30.235,0,0,1-4.248-.672l.448-.557a2.49,2.49,0,0,0,1.452-2.13,4.274,4.274,0,0,0-.672-2.015,2.117,2.117,0,0,0,.339-.9,2.127,2.127,0,0,0-.562-1.119,2.067,2.067,0,0,0-1-1.9,5.218,5.218,0,0,0,.672-2.577,6.314,6.314,0,0,0-2.692-4.925l1.343-1.452c.677-.115,3.249.109,3.249-1.234l-.333-1.119c.89-.109.89-.557.89-1.343l.224-.333-.109-.448v-.115c0-.672.9-.562.9-1.119a11.707,11.707,0,0,0-1.458-2.463,6.728,6.728,0,0,1-.109-2.577,2.493,2.493,0,0,0-.672-1.9V8.4a1.149,1.149,0,0,0-.557-.9c0-1.343-.224-2.8-1.906-3.02l.115.448-.339,1.562a7.778,7.778,0,0,0-2.687-.557,7.9,7.9,0,0,0-2.8.557l-.109-.672a2.209,2.209,0,0,1,.224-1.229,3.769,3.769,0,0,0-2.353,3.358A6.83,6.83,0,0,0,224,14.334c-.115-.224-.562-.339-.786-.339a2.529,2.529,0,0,0-1.567.672l.224.448a2.023,2.023,0,0,0-1.791,1.01,2.1,2.1,0,0,0,1.343.9l-.448,1,1.791.448-.562,1.01h-.109c-2.124-2.353-5.821-3.358-8.731-4.478a42.945,42.945,0,0,1-7.5-3.811l-7.05-4.254a3.259,3.259,0,0,0-1.229,2.244c0,1.452,1.676,2.457,2.9,2.681l-.333,1.458c0,1.567,1.458,2.239,2.687,2.463v.339c0,1.567,1.452,2.015,2.8,1.9a1.072,1.072,0,0,0,.224.786,2.47,2.47,0,0,0,2.353.781c0,.562.115,1.01.562,1.234l-2.916-1.234c-6.493-2.8-13.2-5.373-19.7-8.4a3.5,3.5,0,0,0-.672,1.791c0,1.906,2.681,2.353,4.024,2.577l-.109,1.343a3.646,3.646,0,0,0,3.915,3.921,2.971,2.971,0,0,0-.333,1.338c0,1.431,1.2,2.162,2.408,2.441l1.174.137m-31.9,19.368h-1.01c-2.463,9.4-6.045,13.875-15.339,13.875-9.851,0-11.751-1.452-11.751-12.423V31.906h5.04c6.711,0,10.97,1.452,11.527,9.512h.9l-.224-10.855.224-9.736h-.9c-.557,7.273-5.93,9.179-11.866,9.179h-4.7V5.488h3.582c5.936,0,14.552.224,18.249,6.378a24.407,24.407,0,0,1,2.457,7.617h.9c-.229-3.358-.229-6.5-.229-9.851l.229-6.716c-9.179,1.119-18.921.9-28.1.9L118.1,3.588v1c6.154.339,8.278,1.119,8.278,8.169v38.06c0,6.94-2.233,7.727-8.278,8.174v.9c5.821-.224,11.751-.224,17.572-.224,9.064,0,18.358-.115,27.537.9l.6-8.229.857-8.224M112.951,59.891V59c-6.045-.448-8.4-1.234-8.4-8.174V12.761c0-6.94,2.239-7.83,8.4-8.169v-1L99.4,3.811,86.085,3.588v1c6.263.339,8.278,1.119,8.278,8.169V29.667l-14.547.115H68.955V12.761c0-6.94,2.239-7.83,8.393-8.169v-1l-13.427.224L50.6,3.588v1c6.159.339,8.284,1.119,8.284,8.169v38.06c0,6.94-2.239,7.727-8.284,8.174v.9l13.324-.224,13.427.224V59c-6.045-.448-8.393-1.234-8.393-8.174V31.458l12.313-.109,13.094.109V50.821c0,6.94-2.015,7.727-8.278,8.174v.9L99.4,59.667l13.548.224M47.572,20.712,47.463,9.518l.109-6.493a79.635,79.635,0,0,1-8.841.562L28.1,3.7H19.587L8.731,3.588A75.13,75.13,0,0,1,0,3.025L.115,9.518,0,20.712H.786c1.9-9.294,3.577-15.339,15.9-15.339h1.791L18.7,21.607V50.821c0,6.159-2.239,7.612-9.408,8.174v.9l14.558-.224,14.438.224V59c-7.055-.562-9.512-2.015-9.512-8.174V21.607L29,5.373H31c11.194,0,14,6.607,15.677,15.339h.89" fill="#161615"/>
</svg>
